<?xml version="1.0" encoding="utf-8"?>
<!-- Generator: Adobe Illustrator 19.2.0, SVG Export Plug-In . SVG Version: 6.00 Build 0)  -->
<svg version="1.1" xmlns="http://www.w3.org/2000/svg" xmlns:xlink="http://www.w3.org/1999/xlink" x="0px" y="0px"
	 viewBox="0 0 841.9 595.3" style="enable-background:new 0 0 841.9 595.3;" xml:space="preserve">
<style type="text/css">
	.st0{display:none;}
	.st1{fill:#B8DCE0;}
</style>
<g id="Capa_1" class="st0">
</g>
<g id="Capa_6">
	<g>
		<g>
			<path class="st1" d="M837.4,263.2l-11.8-5.5l-1.5-0.4l-1.9-0.8l-17.7-4.1l-15.4-4.8L766,236.4c0,0-47.4-29.7-53-33.7
				c-5.6-4-22.5-12.9-29.7-17.7c-7.2-4.8-22.5-4.8-22.5-4.8l-61.1-24.9L545,139.9l-20.1-8.8L496,117.4l-24.9-8.8l-24.9-20.1
				l-15.3-6.4l-18.5,11.2l-11.2,9c-0.5,0.3-1.1,0.6-1.5,0.8c-3.3,0.7-18.4,4.1-23.4,5.5c-5.6,1.6-23.3,7.2-28.9,10.4
				c-5.6,3.2-15.3,8-23.3,13.7c-8,5.6-21.7,10.4-32.9,16.1c-11.2,5.6-14.5,8-17.7,9.6c-3.2,1.6-50.6,30.5-50.6,30.5l-20.9,12.9
				c0,0-8,4-12.1,4.5c-2.7,0.3-6.5,0.7-9.4,0.7c-1.4,0-2.7-0.1-3.4-0.4c-0.8-0.3-2.1-0.4-3.7-0.4c-3.2,0-7.3,0.4-9.9,0.4
				c-1.5,0-3.2,0.1-4.8,0.4l-3.4-0.4l-4.8,2.8l-5.6-2l-22.9,2l-16.2,5.6c-6.3-0.5-16.2-1.2-19.9-1.2c-5.1,0-14.3,9.2-16,10.9
				l-9.3,4.3l-2.7,2c-6.7,3.5-14.3,7.6-16.4,9.3c-1.3,1.1-2.8,1.4-4.1,1.4c-2.6,0-4.8-1.4-4.8-1.4l-11.9-4.7L8,244l-5.4,4.7L0,263.9
				c0.1,0.7,0.3,1.4,0.4,2.2c0.4-0.7,0.7-1.2,1.1-2c-0.2,2.1-0.3,3.8-0.4,5.5c0,0,0.1,0,0.1,0.1c0.2-1,0.5-2,0.8-3.5
				c0.7,4.4,1,8.4,0.4,12.5c0.1,0.1,0.2,0.1,0.3,0.2c0.4-1.2,0.8-2.5,1.1-3.7c0.1,0,0.1,0.1,0.2,0.1c0,0.9-0.1,1.8-0.1,3.2
				c0.3-0.8,0.5-1.2,0.9-2c-0.1,2.3-0.2,4.2-0.2,6.1c0.2-0.3,0.4-0.7,0.7-1.1c-0.1,2.8-0.2,5.3-0.3,8.2c0.5-0.9,0.7-1.5,1-2
				c0.1,1,0.2,1.9,0.4,3.3c0.3-1.7,0.5-2.9,0.7-4.2l0.4,0.1c-0.1,1-0.1,2.1-0.2,3.1c0,0.4-0.2,1.2-0.1,1.3c0.8,0.7,0.3,1.3,0.1,2.2
				c-0.2,0.7-0.2,1.6-0.3,2.5c0.3-0.4,0.3-0.8,0.4-1.3c0.1-0.3,0.2-0.6,0.3-0.8c0.1,0.2,0.3,0.3,0.3,0.5c0.3,1.4,0.7,2.9,0.9,4.1
				c0.1-0.4,0.2-1.2,0.3-2c0.1,1.4,0,2.8,0.1,4.2c0.1,1.2,0.3,2.4,0.5,3.8c0.1,0.2,0.2,0.3,0.2,0.5c0.3-0.9,0.4-1.4,0.6-1.9
				c0.1,0.5,0.2,1,0.3,1.9c0.2-1.7,0.4-3,0.5-4.3c0.3,1.3,0.6,2.5,0.7,3.7c0.1,1.9,0,3.8,0,5.8c0.2-0.9,0.4-1.6,0.6-2.4
				c0.1,0,0.2,0,0.3,0c0,1.4,0,2.8,0,4.2c0,1.7-0.1,3.5-0.2,5.2c0.1,0,0.2,0,0.4,0c0-1,0.1-1.9,0.1-3.3c0.4,1.1,0.7,1.9,1,2.7
				l0.2-0.2c-0.5-3-1.2-6-0.5-9.1c0.1,0.3,0.3,0.5,0.5,0.9c-0.1-1.5-0.1-2.9-0.2-3.9c0.3,0.4,0.6,0.8,0.9,1.3
				c0.2-1.6,0.4-2.9,0.4-4.2c0-1.4-0.2-2.7-0.3-4.1c0.1,0,0.2-0.1,0.2-0.1c0.2,0.6,0.4,1.2,0.6,1.9c0.2-1.9,0.3-2.8,0.5-2.8
				c0-0.8,0-1.6,0-2.4c0.2,0.2,0.4,0.3,0.6,0.6c0.7-4.4,1.4-8.6,2.1-12.7c0.2,0.6,0.4,1.3,0.5,2.1c0.1,0.6-0.3,1.4-0.2,2
				c0.3,1.2,0.7,2.4,1,3.4c0.1-0.3,0.3-0.9,0.5-1.5l0.3,0.1v3.9c0,0,0.1,0,0.1,0c0.1-0.3,0.1-0.5,0.2-1c0.4,1.1,0.8,2,1.2,2.9
				c0.1,0.1,0.3,0,0.7-0.1c-0.2,2.2,0.3,4.5-0.6,6.7c-0.2,0.5-0.1,1.6,0.1,2.3c0.1,0.2,0.7,0,1.2,0c0.1-0.9,0.3-2,0.4-3.1
				c0.1,0,0.2,0,0.3,0v3.5l0.2,0c0.1-0.5,0.2-0.9,0.4-1.4c0.1,0,0.2,0.1,0.3,0.1c-0.2,2.2-0.3,4.3-0.5,6.5c0.1,0,0.1,0,0.2,0
				c0.2-0.8,0.4-1.5,0.6-2.3c0.1,0,0.2,0,0.3,0c0.1,1.7,0.5,3.6,0.2,5.1c-0.3,1.5-0.2,2.5,0.1,3.6c0.7-0.9-0.2-3.5,1.3-3.5
				c0.1-0.8,0.2-1.6,0.3-2.4c0.1,0,0.3,0,0.4,0c0,1.8,0.2,3.8-0.1,5.5c-0.2,1.1-0.3,2.2-0.3,3.3c0.6,0.5,1.2,1,1.9,1.6
				c-0.1-0.9-0.2-1.4-0.2-1.9c0.1,0,0.2-0.1,0.3-0.1c0.3,0.5,0.6,1,0.9,1.6c0.2-0.5,0.4-0.9,0.6-1.3c0.1,0,0.2,0.1,0.3,0.1
				c-0.1,0.8-0.2,1.5-0.3,2.3l0.4,0.2c0.3-0.6,0.6-1.2,0.8-1.6l1.6,3.2c-0.5-1.9-0.9-3.9-1.5-6.1c0.1-0.3,0.3-1.1,0.5-1.8
				c-0.1-0.1-0.3-0.2-0.4-0.3l0.1-0.3c0.5,0.1,0.9,0.1,1.5,0.2v-3.4c0.4,1,0.4,2.1,0.4,3.1c-0.1,1.2,0,2,1.7,1.9
				c-2.2,0.5-0.7,2.4-1.7,3.3c0.1,0.1,0.3,0.2,0.4,0.3c1.1-1,2.1-2.1,3.2-3.1c0.1,0.1,0.1,0.1,0.2,0.2c-0.3,0.8-0.6,1.7-0.8,2.2
				c0.6,0.4,1.1,0.7,1.5,1c0.4-0.8,0.7-1.7,1.1-2.6c0.1,0,0.2,0.1,0.3,0.1c-0.1,0.5-0.2,0.9-0.3,1.7c1.2-1.1,2.1-2,3-2.8
				c0.1,0.1,0.1,0.1,0.2,0.2c-1,1.1-2,2.3-3.1,3.5c0.5,0.1,0.9,0.1,1.3,0.1c-1.6,1-3,2-4.4,3c0.1,0.1,0.1,0.2,0.2,0.3
				c0.4-0.1,0.7-0.2,1.2-0.2c-0.2,0.8-0.4,1.5-0.5,2.2L39,324c0.6-0.7,1.5-1.2,1.8-2c0.7-2,2.7-2.1,3.9-3.4c0.1,0.1,0.2,0.3,0.4,0.4
				c-0.9,0.7-1.7,1.4-2.7,2.2c0.5,0.2,0.6,0.2,0.8,0.3c0.1,0.1,0.2,0.3,0.3,0.4l-0.5-0.2c-0.8,1.2-1.7,2.4-2.5,3.6
				c0.1,0.1,0.2,0.2,0.4,0.2c0.5-0.2,1.1-0.5,1.6-0.7c0.1,0.2,0.1,0.3,0.2,0.5l-2.8,1.4c0,0.1,0.1,0.2,0.1,0.2
				c0.5-0.1,0.9-0.2,1.6-0.4c0.9,1.1,1.8,2.2,2.8,3.4c0.5-0.8,1.3-2,2-3.2v1.7c0.9-0.7,1.6-1.3,2.2-1.8c-0.6,1.1-1.1,2.2-1.7,3.2
				c0.2,0.1,0.4,0.2,0.5,0.3c0.5-0.7,1-1.4,1.8-2.4c-0.3,1.1-0.6,1.8-0.9,2.7c0.8-0.4,1.2-0.6,1.7-0.8c-0.1,1-0.4,2.1-1,2.3
				c-1.2,0.4-2,0.7-1.7,2.1c0,0.1-0.5,0.3-0.7,0.5c-0.2,0.2-0.5,0.4-0.7,0.6c-0.3,0.4-0.5,0.8-0.8,1.2c-0.3,0.1-0.3,0.4-0.2,0.8
				c0.1,0.4,0.2,0.7,0.2,0.7c1.4-1.5,2.9-2.9,4.2-4.4c0.2,1.1,0.4,2,0.7,3.2c0.6-0.8,0.8-1.1,1.4-1.9c-0.2,0.9-0.3,1.3-0.4,1.8
				c0.3-0.1,0.6-0.2,0.9-0.3c-0.2,0.4-0.3,0.8-0.5,1.2c0.4,0.1,0.6,0.1,1.1,0.2c-2.4,1-2.4,1-2.4,2.1c-0.6,0.5-1.2,1.1-1.2,1.8
				c0,0.6,0.6,1.2,1,1.9c-0.8,0.6-1.8,1.2-3,2.1c0.5,0.1,0.8,0.2,1.1,0.3c-0.2,0.5-0.4,1-0.6,1.6c1.6-0.2,3-0.4,4.2-0.6
				c1.1,0.3,2.3,1,2.7,0.6c0.8-0.6,2.2-1.3,1.8-2.8c-0.3-1.1-0.8-2.1-1.3-3.2c0.3,0.2,0.7,0.4,0.9,0.5c0.2-1,0.4-2.1,0.6-3.3
				c0.1,1.1,0.2,2.1,0.3,3.1c0.7-0.3,1.3-0.6,1.8-0.8c0,0.1,0.1,0.2,0.1,0.2c-0.8,0.8-1.5,1.6-1.9,2.1c0.3,1,0.7,1.6,0.7,2.2
				c0,1.4-0.2,2.8-0.3,4.2c1.1-0.6,2.2-1.1,3.5-1.7c-1.1,2.3-2,4.3-2.9,6.4c0.1,0.1,0.2,0.1,0.3,0.2c0.3-0.3,0.6-0.6,1.1-1.2
				c-0.1,1-0.1,1.5-0.1,1.9c0.9-0.2,1.8-0.5,2.7-0.8c0.1,0.5,0.3,0.9,0.4,1.3c0.2,0.2,0.3,0.4,0.5,0.6c0.6-0.6,1.2-1.2,1.9-1.8
				c0.1,0.3,0.1,0.5,0.2,0.9c0.3-0.4,0.5-0.7,0.8-1.1c0.3,1,0.6,1.8,0.9,2.9c1.8,1,0.5-3.3,2.9-1.7c-1.3-1.3-1.7-2.6-1.3-4.1
				c0-0.1,0-0.3-0.1-0.3c-1.9-1.6,0.3-1.4,0.5-1.9c0.5,0.7,0.9,1.3,1.1,1.6c0.8,0.1,1.3,0.1,1.8,0.1c-0.5-0.3-1.1-0.7-1.6-1
				c0,0,0,0,0,0c1,0,2-0.1,2.9,0.1c0-0.3-0.2-0.6-0.4-0.9c-0.3-0.4-0.7-0.6-1-0.9c0.4-0.4,0.7-0.8,1-1.2c1.1,1,2.1,1.9,3.2,2.9
				c0.3-0.2,1.4-0.7,1.4-1c-0.3-1.5-0.1-3.2-1.9-4.1c-0.5-0.2-0.8-0.9-1.3-1.3c0.1-0.1,0.2-0.2,0.4-0.3c1,0.3,1.9,0.7,3.1,1.1
				c0,0.1,0.1,0.5,0.2,1.1c1.1-1.4,1-4.7,0.4-5.6c0.7-2.5,0.9-4.7,1.1-6.9v6.2c0.5-0.4,0.9-0.7,1.6-1.1c-0.8,1.4-1.4,2.5-2,3.7
				c0.5,0.4,1,0.7,1.3,1c0.4-0.9,0.7-1.7,1.1-2.6c0.4,1.1,1,2.4,0.6,3.2c-0.7,1.5-0.2,2.6,0.6,3.6c0,0.6-1.9,0.9-0.2,1.6
				c-0.3,0.6-0.7,1.1-1,1.7c0.1,0.2,0.3,0.3,0.4,0.5c2.5-0.7,3.7-3.4,6.3-4.6c-0.4,2.1-0.7,3.9-1.1,5.8c0.1,0,0.3,0.1,0.4,0.1
				c0.2-0.2,0.4-0.4,0.5-0.5c0.2,0.3,0.4,0.6,0.7,1c0.5-0.7,0.7-1.1,0.9-1.4c0.2,0.7,0,1.3-0.2,1.9c-0.2,0.5-0.7,1-0.7,1.4
				c0.1,0.6,0.6,1.1,0.9,1.6c0.1,0.1,0.2,0.1,0.2,0.2c0.7-0.1,1.3-0.2,2-0.4c-1.4,0.8-2.8,1.6-4.5,2.7c2.5-0.1,1.5,1.5,1.8,2.7
				c0.3-0.7,0.5-1.3,0.8-1.9c0.1,0.2,0.3,0.4,0.3,0.5c0.8-1.1,1.6-2.3,2.4-3.4c0,0.8,0.1,1.6,0.1,2.3c-0.6,0.7-1.1,1.4-1.7,2.1
				c0.1,0.1,0.2,0.2,0.2,0.3c0.6-0.2,1.1-0.4,1.7-0.6c-0.3,0.4-0.7,0.8-1,1.2c0.6,0,1.1,0,1.5,0c-0.2,0.1-0.7,0.5-1.4,0.9
				c0.5,0.1,0.8,0.2,1.1,0.3c-0.3,0.3-0.6,0.5-0.8,0.7c0.1,0.1,0.3,0.3,0.4,0.4c0.6-0.5,1.2-1.1,1.6-1.5c0,0.5-0.1,1.2-0.2,2
				c0.1,0,0.2,0,0.4,0c0.4-0.5,0.8-1.1,1.2-1.7c0.3,0.6,0.5,1,0.8,1.6c0.4-0.4,0.8-0.7,1.1-0.9c-0.2,0.9-0.4,1.7-0.6,2.6
				c0.1,0,0.2,0.1,0.4,0.1c0.2-0.3,0.4-0.6,0.6-0.9c0.2,0.6,0.4,1.2,0.6,1.8h1.8c-0.1,0.5-0.3,1-0.3,1.4c0,0.3,0.2,0.5,0.3,0.8
				c0.3-0.1,0.6-0.1,0.8-0.3c0.3-0.4,0.5-1,0.8-1.6c-0.9-0.6-1.3-1.3-0.3-2.3c0.2-0.2-0.2-1-0.4-1.4c-0.2-0.4-0.7-0.7-1.1-1
				c0.6,0.1,1.2,0.2,1.8,0.3c0-0.9,0.1-1.7,0.1-2.4c0.1,0,0.1,0,0.2,0c0,0.5,0.1,1,0.1,1.2c0.6-0.1,1.1-0.2,1.7-0.3
				c-0.2-0.6-0.4-1.3-0.6-2c0.1,0,0.2-0.1,0.3-0.1c0.3,0.6,0.5,1.2,0.8,1.8c1.3-0.8,1.7,0.4,2.4,1.5c0.2-1.8,0.4-3.2,0.5-4.4
				c0.6,0.4,1.1,0.8,1.6,1.2c0-0.5,0.2-1.1,0-1.6c-0.3-1.2-0.8-2.5-1.2-3.7c1.7-0.1,2.3,2.3,4.1,1.3c0.1,1,0.1,2,0.2,3.2
				c0.2,0,0.6-0.1,0.7-0.1c0.1,0.6,0.2,1.1,0.5,2.1c0.5-1.7,0.7-2.8,1.1-3.8c0.4-1.3,0.6-2.5,0.2-3.8c-0.3-1.1-0.2-2.3-1.1-3.3
				c-0.1-0.1,0.2-0.7,0.3-0.9c0.9,0.2,1.6,0.4,2.6,0.7c-0.9-1.8-1.7-3.3-0.5-4.8c0.2-0.3,1.4,0.2,2.2,0.3c0.2-1.1,0.4-2.2,0.6-3.4
				c-0.2,0,0,0,0.4,0.1c-0.4-1.3-0.7-2.4-1-3.5c0.1,0,0.3-0.1,0.4-0.1c0.3,0.4,0.6,0.9,1.2,1.7v-3.6l0.3,0v2.3
				c0.4-0.1,0.7-0.2,1.1-0.3c-0.6,2.8,1.7,5.6-0.8,8.1c0.2,0.1,0.3,0.1,0.5,0.2c1.2-1.1,2.4-2.3,3.7-3.4c0.1,0.1,0.3,0.2,0.4,0.3
				c-1,2-2,4.1-3.1,6.2c0.8,0.3,1.5,0.5,2.1,0.7c1-0.2,2-0.4,3.3-0.7c-1.2,1.6-2.1,2.9-3.1,4.2c0.1,0.1,0.3,0.2,0.4,0.4
				c0.9-0.8,1.7-1.6,2.6-2.5c1.7,1.9,2,1.7,3.6-1.8c0.4,0,0.8,0.1,1.3,0.1c-0.5,0.9-1,1.8-1.5,2.7c0.1,0.1,0.2,0.2,0.3,0.3
				c0.4-0.2,0.8-0.5,1.2-0.7c0.1,0.6,0.1,1.1,0.2,1.9c0.5-0.6,0.7-1,1-1.4c0.4,1.2,1.3,2.3-0.5,2.9c-0.2,0.1-0.4,0.9-0.2,1.2
				c1,1.4,1.1,2.9,1,4.5c0,0.3,0.1,0.7,0.2,1.1c-0.1,0.4-0.5,0.9-0.4,1.4c0.1,0.7,0.4,1.4,0.9,1.9c0.1,0.2,1,0,1.3-0.2
				c1.1-0.9,2.1-2,3.1-2.9c-0.2,1.5-0.4,3-0.6,4.6c0.1,0.1,0.3,0.2,0.4,0.3c0.1-0.3,0.3-0.6,0.5-1.1c0.1,1.5,0.2,2.7,0.2,3.5
				c1,1.1,1.8,2.1,2.6,3c0.3-0.6,0.4-1.2,0.8-1.6c0.4-0.4,1.1-1,1.7-0.9c1,0.1,0.4,0.8,0.3,1.3c0,0.2,0,0.4,0.2,0.5
				c1.5,1.5,0.3,2.4-0.7,3.4c-0.1,0.1-0.1,0.2-0.3,0.5c0.6-0.1,1-0.2,1.5-0.3c-1.4,2.8-2.7,5.6-4,8.3c1.3-0.6,2,0,2.2,0.8
				c-1.1,1.3-2,2.3-3.1,3.5c0.5,0,0.8,0,0.9-0.1c0.9-0.4,1.7-1.1,2.5-1.1c2.1-0.1,3.1-1.1,3.7-3c-0.7-0.2-1.3-0.4-1.9-0.5
				c0.1-0.1,0.3-0.1,0.4-0.2c-0.3-0.7-0.6-1.3-0.9-2.1c1,0.6,1.9,1.2,2.9,1.8c0.3-0.9,0.6-1.6,0.9-2.3c-0.3,2.9-0.3,2.9,1.3,3.3
				c0.3-2.3,0.6-4.6,1-6.9c0.5,1.1,1.1,2.2,1.7,3.5c0.1,0,0.5,0,1.1,0.1c-0.5,0.4-0.8,0.6-0.7,0.5c-0.1,1-0.2,1.8-0.3,2.5
				c0.3-0.1,0.9-0.2,1.5-0.4c-0.4,1.2-0.1,1.5,1.2,1c-0.4,1.1-0.8,2.5-1.5,2.8c-1.2,0.5-1.1,1.1-0.9,2.1c1.1-0.4,2-0.7,2.8-0.9
				c1.6,0.8-1.2,2.1,0.5,3.2c0.3,0.2-0.5,2-0.8,3c0.2,0,0.3,0.1,0.5,0.1c1-1.5,2-2.9,2.9-4.4c0.1,0.1,0.2,0.1,0.3,0.2
				c-0.1,0.6-0.2,1.1-0.2,1.7c0.3,0.1,0.7,0.3,1.5,0.6c-0.1-1,0.1-2.2-0.4-2.8c-1.2-1.6-0.5-3.1-0.3-5.2c0.5,1.3,0.8,2.1,1.1,2.9
				c1.3-0.8,1-1.5,0.6-2.7c-0.5-1.4-0.5-4.1,0.3-4.7c1.4-1,0.9-1.7,0.8-2.8c0-0.5,0.4-1,0.7-1.6c0.4,0.9,0.7,1.5,1,2.2
				c0.3-3.4,1.8-6.7,0.7-10c0.7,1.6,1.9,2.6,3.8,3c0.2-0.8,0.5-1.6,0.7-2.5c-1.6-0.7-1.9-1.8-1.1-3.4c0.2-0.3,0-0.8,0-1.2
				c0-1.2,0-2.3,0-3.5c0.1,0,0.2,0,0.4,0c0.3,1.4,0.6,2.8,0.9,4.3c0.2,0,0.3,0,0.5,0c0.2-1,0.5-1.9,0.7-2.9c0.2,0.6,0.4,1.3,0.8,2.3
				c0.3-1.2,0.9-2.2,0.6-2.7c-1.2-1.9-0.5-3.8-0.1-5.9c0.4,1.3,0.8,2.5,1.2,3.6c0.2-0.1,0.3-0.1,0.5-0.2c-0.3-1.1-0.5-2.2-0.8-3.4
				c0.4,0.1,0.5,0.2,0.7,0.2c0.2,0,0.3,0,0.7,0c-1.9-2.8,0.4-5,0.5-7.5c0.3,2,0.6,3.9,1,5.9c-0.3,0.9-0.5,1.8-0.8,2.8
				c0.1,0.1,0.2,0.1,0.4,0.2c0.4-0.3,0.7-0.6,1.3-1c-0.1,0.9-0.2,1.6-0.3,2.3c0.5-0.2,0.8-0.4,1.3-0.6c0.1,1.1,0.1,2,0.2,3
				c0.5-0.4,0.9-0.8,1.3-1.1c0.7,1.9-2.2,3.3-1.1,5.3c0.1-0.1,0.2-0.3,0.3-0.4c0.4,0.4,0.9,0.8,1.4,1.2c0.1-0.4,0.1-0.8,0.2-1.2
				c0.1,0,0.2,0,0.3,0c0.3,2.8,0.6,5.5,1,8.8c0.7-0.9,1.3-1.5,1.9-2.3v12.4c0.1,0,0.3,0,0.4,0c0.6-1.1,1.2-2.2,1.8-3.5
				c0.1,1.2,0.1,2.3,0.3,4c0.6-0.7,1-1,1.2-1.4c0.3-0.6,0.4-1.6,0.9-1.9c1.1-0.6,1.2-0.5,0.8-1.5c-0.1-0.4-0.3-0.8-0.3-1.1
				c0.2-2,0.4-4.1,0.6-6.3c0.6,2.2,1.1,4.3,1.6,6.3c0.3,0,0.5,0,0.8,0c0.1-0.8,0.3-1.6,0.3-2.4c0-0.7-0.1-1.4-0.1-2.1
				c1.3,1.8,2.6,3.5,3.8,5.1c0.2-0.1,0.4-0.2,0.5-0.3c-0.4-1-0.4-2.4-1.1-3.1c-1.6-1.5-2.3-3-1.8-5.2c0.2,0.5,0.3,1,0.5,1.5
				c0.1,0,0.2,0,0.3-0.1c0.2-1.5,0.4-3,0.6-4.5c0,2.3,1,3.8,3.2,4.5c0.1-0.1,0.2-0.2,0.3-0.3c-0.7-0.6-1.4-1.2-1.9-1.6
				c0-0.6-0.1-1.1-0.1-1.6c0-1.5-1.8-3.1-0.1-4.7c0.4,1.6,0.8,3.2,1.2,4.8c0.2,0,0.4-0.1,0.7-0.1c-0.2-1.2-0.6-2.4-0.5-3.6
				c0.1-1.5,0.6-2.9,1-4.7c0.4,1.4,0.7,2.4,0.8,2.9c0.5-3.2,1.1-6.8,1.7-10.4c0.8,1.4,0,3,1.3,4.1c-0.1,1.5-0.2,3-0.2,4.6
				c0.2,0,0.4,0.1,0.7,0.1c0.4-0.7,0.8-1.5,1.3-2.3c0.1,0.5,0.2,0.9,0.2,1.3c0.2,0,0.3,0.1,0.5,0.1c0.5-1.2,0.9-2.3,1.5-3.8
				c0.1,1.3,0.1,2.3,0.2,3.2c0.6-1,0.9-2.1,0.9-3.2c0-1-0.7-2.6-0.2-3c1.4-1.3,0.5-2.9,1.4-4.2c0.2,1.8,0.1,3.5,0.2,5.3
				c0,0.3,0.5,0.6,0.8,0.9c0.2,2.6,0.4,5.4,0.6,8.1c0.2,0,0.4,0,0.6,0.1c0.4-1.3,0.7-2.7,1.1-4.1c0.3,0.4,0.6,0.6,0.9,0.9
				c0.5-0.8,1-1.7,1.5-2.5c0.8,2.2,0.2,5.2,3.2,6.3c0.2-0.4,0.4-0.8,0.6-1.2c-1.1-0.5-1.8-0.9-1.7-2.5c0.1-1.4-0.7-2.8-1-4.3
				c0.1,0,0.2,0,0.3,0c0.4,0.5,0.8,1,1.4,1.8c-0.4-2.3-0.6-4.1-0.9-5.9c0.1,0,0.2,0,0.4,0c0.2,0.3,0.3,0.5,0.6,1
				c0.2-0.8,0.3-1.3,0.4-1.6c0.4,1,0.9,2.1,1.4,3.4c0.2-0.9,0.3-1.4,0.5-2.2c0.3,0.4,0.5,0.6,0.7,0.9c0.2,0,0.3-0.1,0.5-0.1
				c-2.5-3-2-6.2-1-9.4c0.2,0.3,0.5,0.6,0.8,1.1c0.1-0.7,0.1-1.2,0.2-1.8c0.2,0.4,0.3,0.7,0.5,1v-4.5c0.2,0,0.3,0,0.5,0
				c0.2,2.8,0.4,5.6,0.6,8.7c0.7-0.9,1.3-1.7,1.9-2.5c0.1,0,0.2,0.1,0.3,0.1c-0.4,3-0.9,5.9-1.3,8.9c0.2,0,0.3,0.1,0.5,0.1
				c0.3-0.4,0.7-0.8,1.2-1.3c0.2,1.5,0.3,2.7,0.5,3.9c0.2,0.1,0.4,0.2,0.5,0.2c0.7-1.2,1.3-2.3,2-3.5c0.1,0,0.2,0,0.3,0.1
				c-0.1,1.3-0.3,2.7-0.4,3.8c0.5,0.1,1,0.2,1.5,0.3c0-0.3,0.1-0.9,0.1-1.5c0.9,1.1,1.7,2.3,2.5,3.4c0.2-0.2,0.4-0.3,0.6-0.5
				c-1.2-1.6-2.5-3.1-3.6-4.7c-0.4-0.7-0.5-1.6-0.7-2.4c0.2,0,0.3-0.1,0.5-0.1c0.7,0.9,1.4,1.8,2,2.7c0.1-1-0.2-1.9-0.3-2.9
				c-0.2-1-0.2-2.1-0.2-3.2c0.6,2.3,1.4,3.3,2.9,3.4c-0.1,0.8-0.1,1.6-0.2,2.5h1.7c-0.1-0.8,0-1.5-0.3-2.1c-0.7-1.7-1.6-3.4-2.4-5.1
				c-0.3-0.6-0.3-1.3-0.4-1.9c0.1,0,0.2,0,0.3,0c0.6,0.8,1.2,1.7,2.1,3c0.5-1.9,0.9-3.4,1.4-4.9c0.4,0.5,0.6,0.8,0.9,1.1
				c0.3-0.7,0.4-1.4,0.1-1.9c-1.4-2.6-1.5-2.6-0.8-5.3c0.2,0.5,0.4,1.2,0.6,1.8c0.8-1.9-1.2-3.8,0.6-5.5c0.1,0,0-0.2,0-0.3
				c0-1,0-1.9,0-2.9c0.3,0,0.6,0,0.8,0c0.2,1.8,0.3,3.6,0.5,5.8c0.5-1,0.8-1.7,1.3-2.7c-0.1,1.8-0.2,3.2-0.3,4.9
				c0.4-0.4,0.5-0.6,0.6-0.6v4.8c0.2,0,0.3,0,0.5,0c0.5-0.9,1-1.9,1.4-2.8c0.1,0,0.3,0,0.4,0c-0.2,3-0.5,6-0.7,9.4
				c0.7-1.3,1.3-2.4,1.8-3.4c0.4,1,0.9,2.2,1.4,3.4c0.2,1-1.7,2.3,0.7,3.3c0.6-1,1.1-2.1,1.7-3.2c0.6,2.1,0,4.8-1.7,5.6
				c-0.6,0.3-1.3,0.4-1.7,0.8c-0.4,0.4-0.4,1.1-0.6,1.7c0.5,0,1,0.1,1.4-0.1c0.5-0.2,1-0.6,1.4-0.9c0.1,0.1,0.3,0.2,0.4,0.3
				c-0.5,0.9-0.8,2-1.5,2.6c-1.8,1.5-2.4,3-1.9,5.2c0.7-0.1,1.4-0.2,2.1-0.3c1.1-0.2,2.2-0.2,1.6-2c-0.2-0.6,0.4-1.4,0.6-2.2
				c0.2,0.1,0.4,0.1,0.5,0.2v4.6c0.6-0.9,0.9-1.4,1.3-1.8c0.4-0.4,0.9-0.7,1.3-1c-0.5-0.5-0.9-1-1.4-1.7c1.5,0,3.1-1.8,3.1-2.9
				c0.1-1.6,0.3-3.1,0.5-5.1c1,1.6,1.7,2.9,2.4,4.1c0.1-0.1,0.2-0.1,0.3-0.2c-0.1-2.3-0.3-4.6-0.4-7.1c0.7,0.3,0.9,0.4,1.2,0.5
				c0.4-1.5,0.9-2.8,1.4-4.6c0.6,2,1.1,3.6,1.7,5.5c0.7-0.7,1.1-1.2,2-2c-0.3,2.1-0.5,3.8-0.7,5.5c0.1,0,0.2,0,0.3,0.1
				c0.4-1,0.8-2,1.4-3.5c1.2,4.4,1.7,8.4,0.6,12.5c0.2,0.1,0.4,0.1,0.5,0.2c0.7-1.2,1.3-2.5,2-3.7c0.1,0,0.2,0.1,0.3,0.1
				c-0.1,0.9-0.1,1.8-0.2,3.2c0.6-0.8,0.9-1.2,1.5-2c-0.2,2.3-0.3,4.2-0.4,6.1c0.4-0.3,0.8-0.7,1.3-1.1c-0.2,2.8-0.3,5.3-0.5,8.2
				c0.8-0.9,1.2-1.5,1.7-2c0.2,1,0.4,1.9,0.7,3.3c0.5-1.7,0.8-2.9,1.2-4.2c0.2,0,0.5,0.1,0.7,0.1c-0.1,1-0.3,2.1-0.4,3.1
				c-0.1,0.4-0.3,1.2-0.2,1.3c1.3,0.7,0.6,1.3,0.2,2.2c-0.4,0.7-0.4,1.6-0.6,2.5c0.5-0.4,0.6-0.8,0.7-1.3c0.1-0.3,0.4-0.6,0.5-0.8
				c0.2,0.2,0.5,0.3,0.6,0.5c0.6,1.4,1.2,2.9,1.6,4.1c0.1-0.4,0.4-1.2,0.6-2c0.2,1.4,0,2.8,0.2,4.2c0.1,1.2,0.5,2.4,0.8,3.8
				c0.1,0.2,0.3,0.3,0.4,0.5c0.4-0.9,0.7-1.4,1-1.9c0.1,0.5,0.3,1,0.6,1.9c0.4-1.7,0.7-3,0.9-4.3c0.6,1.3,1.1,2.5,1.2,3.7
				c0.2,1.9,0,3.8,0,5.8c0.4-0.9,0.7-1.6,1.1-2.4c0.1,0,0.3,0,0.4,0c0,1.4,0,2.8,0,4.2c-0.1,1.7-0.2,3.5-0.4,5.2c0.2,0,0.4,0,0.6,0
				c0-1,0.1-1.9,0.2-3.3c0.7,1.1,1.3,1.9,1.8,2.7c0.1-0.1,0.3-0.1,0.4-0.2c-0.9-3-2.1-6-0.9-9.1c0.2,0.3,0.5,0.5,0.8,0.9
				c-0.1-1.5-0.2-2.9-0.3-3.9c0.5,0.4,1,0.8,1.5,1.3c0.3-1.6,0.7-2.9,0.7-4.2c0-1.4-0.4-2.7-0.6-4.1c0.1,0,0.3-0.1,0.4-0.1
				c0.4,0.6,0.7,1.2,1.1,1.9c0.3-1.9,0.5-2.8,0.8-2.8c0-0.8,0-1.6,0-2.4c0.4,0.2,0.6,0.3,1.1,0.6c1.3-4.4,2.5-8.6,3.6-12.7
				c0.3,0.6,0.7,1.3,0.8,2.1c0.1,0.6-0.5,1.4-0.3,2c0.4,1.2,1.2,2.4,1.7,3.4c0.2-0.3,0.6-0.9,0.9-1.5c0.1,0,0.3,0.1,0.4,0.1v3.9
				c0.1,0,0.1,0,0.2,0c0.1-0.3,0.2-0.5,0.3-1c0.7,1.1,1.3,2,2,2.9c0.1,0.1,0.6,0,1.2-0.1c-0.4,2.2,0.6,4.5-1,6.7
				c-0.4,0.5-0.1,1.6,0.2,2.3c0.1,0.2,1.2,0,2,0c0.2-0.9,0.5-2,0.7-3.1c0.2,0,0.3,0,0.5,0v3.5c0.1,0,0.3,0,0.4,0
				c0.2-0.5,0.4-0.9,0.6-1.4c0.2,0,0.4,0.1,0.6,0.1c-0.3,2.2-0.6,4.3-0.9,6.5l0.4,0c0.4-0.8,0.7-1.5,1.1-2.3c0.2,0,0.3,0,0.5,0
				c0.1,1.7,0.8,3.6,0.3,5.1c-0.6,1.5-0.3,2.5,0.1,3.6c1.2-0.9-0.4-3.5,2.2-3.5c0.2-0.8,0.4-1.6,0.6-2.4c0.2,0,0.4,0,0.7,0
				c0,1.8,0.4,3.8-0.1,5.5c-0.8,2.9-0.5,5.8-1,8.7c0,0,0.2,0.1,0.3,0.1c2-0.2,2-2.1,2.8-3.7c0.2,1.1,0.3,1.8,0.4,2.7
				c0.4-0.9,0.7-1.5,1-2l0.4,0.1c0.1,1,0.3,2,0.5,3.4c0.2-0.6,0.3-0.8,0.3-1c0,0,0.1,0,0.2,0c0.2,0.8,0.3,1.6,0.6,2.9
				c0.5-1.2,0.9-1.9,1.2-2.6c2.9,2.4,0.5,5.2,0.7,8c1.1,0.3,2.3,0.6,3.4,0.9c3.4,1.1,6.9,1.9,10.3,2.5c1-1.6,2.2-1.9,4.1,0.1
				c-0.3-0.9-0.4-1.2-0.5-1.4c0.9-0.3,1.7-0.6,2.5-0.8c0-0.1,0-0.2,0-0.3c-0.6-0.1-1.1-0.1-1.7-0.2v-1c0.4,0,0.9,0.1,1.1-0.1
				c1-1.5-1.3-1.3-1.2-2.3c0.3-0.1,0.7-0.2,1.2-0.4c-1-0.8-1.9-1.4-2.4-1.8c0.3-0.7,0.5-1.2,0.6-1.5c0.7,0.5,1.4,1,2.1,1.5
				c0.1-0.4,0.3-0.7,0.5-1.3c0.5,1,1,1.8,1.4,2.6c0.1-0.1,0.3-0.6,0.5-0.9c0.2,0.6,0.4,1.2,0.7,1.9c0.5-0.2,1-0.3,1.4-0.5l-0.3-0.2
				c0.2-0.4,0.4-0.7,0.8-1.3c-1.3-0.7-1.1-2.8-2.8-3.4c-0.1,0-0.2-0.7-0.1-0.8c2.1-1-0.4-1.2-0.3-1.8c1-0.9,1.1-0.9,3.8,0.9
				c-0.4-1.9-0.8-3.7-1.2-5.2c0.8,0.6,1.8,1.4,2.8,2.1c0.1-0.1,0.2-0.2,0.3-0.3c-0.8-1.5-1.6-3.1-2.5-4.8c0.8,0.7,1.4,1.2,2,1.8
				c1.3-1.1,0.8-1.8-0.7-2.4c0.5-0.3,0.8-0.4,0.8-0.4c-0.3-1.3,0-2.4,0.7-3.3c0,0,0,0,0,0c0.1-0.5,0.2-0.9,0.4-1.5
				c0.9,0.3,1.8,0.6,2.8,1c-0.1-0.7-0.2-1.2-0.2-1.7c0.2,0,0.3-0.1,0.5-0.1c0.3,0.7,0.5,1.4,0.8,2.2c0.4-0.1,0.8-0.2,1.7-0.3
				c-0.7,0.5-1.1,0.7-1.5,1c0.4,0.1,0.7,0.2,1.1,0.3c-1.9,2.3-2,3.3-0.6,4.9c0.2-0.7,0.4-1.4,0.7-2.5c0.8,1.2,1.3,2.1,1.9,3.1
				c0.9-0.9,2-2.1,3.2-3.2c0.2,0.2,0.4,0.3,0.6,0.5c-0.6,1-1.2,2-1.9,3.2h1.2c-0.1,0.5-0.2,0.9-0.5,1.8c1.1-0.7,1.8-1.2,2.6-1.6
				c-0.3,0.6-0.6,1.1-0.8,1.6c0.1,0.1,0.2,0.1,0.3,0.2c0.4-0.3,0.9-0.6,1.3-1c0.1,0.1,0.1,0.1,0.2,0.2c-0.5,0.8-0.9,1.6-1.5,2.6
				c0.8,0.2,1.7,0.5,2.6,0.8c-0.3-0.9-0.5-1.7-0.8-2.4c0.1,0,0.3-0.1,0.4-0.1c0.8,0.9,1.6,1.9,2.5,2.9c0.1-2,0.2-3.8,0.3-5.4
				c0.4,0.3,0.9,0.7,1.5,1c0.5-1.6,0.1-2.2-1.2-3c-0.1-0.9-0.2-1.5-0.3-2.2c1.2,1,1.4,0,1.3-1.2c0.4,1,0.8,1.7,1.1,2.3
				c0.5-0.1,1-0.2,1.4-0.3c-0.1-0.4-0.2-0.7-0.2-1c0-0.3,0-0.5,0.1-0.8c0-0.1,0.1-0.2,0.2-0.3c0.1,0.2,0.2,0.4,0.4,0.6
				c1,1.1,2,2.2,3,3.3c-0.1-2.1-2.1-3.3-2.7-5.4c0.5,0.1,0.9,0.2,1.2,0.3c0.2-0.4,0.3-0.7,0.5-1.1c-0.8-0.3-1.5-0.5-1.8-0.6
				c-0.7-1.2-1.1-2-1.8-3.1c0.9,0.7,1.6,1.2,2.3,1.8c-0.1-0.7-0.2-1.2-0.3-1.8c0.9,1.4,1.8,2.6,3,4.3c0-1.6,0-2.7,0-3.8
				c1.1,0.7,2.1,1.3,3.7,2.3c-0.3-1-0.3-2.1-0.6-2.1c-1-0.2-2-0.1-3-0.1c-0.1-0.3-0.2-0.6-0.3-1c0.6,0,1.1-0.1,1.5-0.1
				c-1-1.2-1.9-2.3-2.9-3.4l0.2-0.1c1,0.8,2.1,1.7,3.4,2.8c-0.1-0.9-0.2-1.4-0.2-1.9c0.1,0,0.2-0.1,0.3-0.1c0.3,0.5,0.6,1,0.9,1.6
				c0.2-0.5,0.4-0.9,0.6-1.3c0.1,0,0.2,0.1,0.3,0.1c-0.1,0.8-0.2,1.5-0.3,2.3c0.1,0.1,0.3,0.1,0.4,0.2c0.3-0.6,0.6-1.2,0.8-1.6
				c0.2,0.9,0.4,2.1,0.6,3.3c0.3-0.1,0.6-0.1,1-0.2c-0.5-1.9-0.9-3.9-1.5-6.1c0.1-0.3,0.3-1.1,0.5-1.8c-0.1-0.1-0.3-0.2-0.4-0.3
				c0-0.1,0.1-0.2,0.1-0.3c0.5,0.1,0.9,0.1,1.5,0.2v-3.4c0.4,1,0.4,2.1,0.4,3.1c-0.1,1.2,0,2,1.7,1.9c-2.2,0.5-0.7,2.4-1.7,3.3
				c0.1,0.1,0.3,0.2,0.4,0.3c1.1-1,2.1-2.1,3.2-3.1c0.1,0.1,0.1,0.1,0.2,0.2c-0.3,0.8-0.6,1.7-0.8,2.2c0.6,0.4,1.1,0.7,1.5,1
				c0.4-0.8,0.7-1.7,1.1-2.6c0.1,0,0.2,0.1,0.3,0.1c-0.1,0.5-0.2,0.9-0.3,1.7c1.2-1.1,2.1-2,3-2.8c0.1,0.1,0.1,0.1,0.2,0.2
				c-1,1.1-2,2.3-3.1,3.5c0.5,0.1,0.9,0.1,1.3,0.1c-1.6,1-3,2-4.4,3c0.1,0.1,0.1,0.2,0.2,0.3c0.4-0.1,0.7-0.2,1.2-0.2
				c-0.2,0.8-0.4,1.5-0.5,2.2c0.1,0.1,0.3,0.2,0.4,0.3c0.6-0.7,1.5-1.2,1.8-2c0.7-2,2.7-2.1,3.9-3.4c0.1,0.1,0.2,0.3,0.4,0.4
				c-0.9,0.7-1.7,1.4-2.7,2.2c0.5,0.2,0.6,0.2,0.8,0.3c0.1,0.1,0.2,0.3,0.3,0.4c-0.2-0.1-0.3-0.1-0.5-0.2c-0.8,1.2-1.7,2.4-2.5,3.6
				c0.1,0.1,0.2,0.2,0.4,0.2c0.5-0.2,1.1-0.5,1.6-0.7c0.1,0.2,0.1,0.3,0.2,0.5c-0.9,0.5-1.9,1-2.8,1.4c0,0.1,0.1,0.2,0.1,0.2
				c0.5-0.1,0.9-0.2,1.6-0.4c0.9,1.1,1.8,2.2,2.8,3.4c0.5-0.8,1.3-2,2-3.2v1.7c0.9-0.7,1.6-1.3,2.2-1.8c-0.6,1.1-1.1,2.2-1.7,3.2
				c0.2,0.1,0.4,0.2,0.5,0.3c0.5-0.7,1-1.4,1.8-2.4c-0.3,1.1-0.6,1.8-0.9,2.7c0.8-0.4,1.2-0.6,1.7-0.8c-0.1,1-0.4,2.1-1,2.3
				c-1.2,0.4-2,0.7-1.7,2.1c0,0.1-0.5,0.3-0.7,0.5c-0.2,0.2-0.5,0.4-0.7,0.6c-0.3,0.4-0.5,0.8-0.8,1.2c-0.3,0.1-0.3,0.4-0.2,0.8
				c0.1,0.4,0.2,0.7,0.2,0.7c1.4-1.5,2.9-2.9,4.2-4.4c0.2,1.1,0.4,2,0.7,3.2c0.6-0.8,0.8-1.1,1.4-1.9c-0.2,0.9-0.3,1.3-0.4,1.8
				c0.3-0.1,0.6-0.2,0.9-0.3c-0.2,0.4-0.3,0.8-0.5,1.2c0.4,0.1,0.6,0.1,1.1,0.2c-2.4,1-2.4,1-2.4,2.1c-0.6,0.5-1.2,1.1-1.2,1.8
				c0,0.6,0.6,1.2,1,1.9c-0.8,0.6-1.8,1.2-3,2.1c0.5,0.1,0.8,0.2,1.1,0.3c-0.2,0.5-0.4,1-0.6,1.6c1.6-0.2,3-0.4,4.2-0.6
				c1.1,0.3,2.3,1,2.7,0.6c0.8-0.6,2.2-1.3,1.8-2.8c-0.3-1.1-0.8-2.1-1.3-3.2c0.3,0.2,0.7,0.4,0.9,0.5c0.2-1,0.4-2.1,0.6-3.3
				c0.1,1.1,0.2,2.1,0.3,3.1c0.7-0.3,1.3-0.6,1.8-0.8c0,0.1,0.1,0.2,0.1,0.2c-0.8,0.8-1.5,1.6-1.9,2.1c0.3,1,0.7,1.6,0.7,2.2
				c0,1.4-0.2,2.8-0.3,4.2c1.1-0.6,2.2-1.1,3.5-1.7c-1.1,2.3-2,4.3-2.9,6.4c0.1,0.1,0.2,0.1,0.3,0.2c0.3-0.3,0.6-0.6,1.1-1.2
				c-0.1,1-0.1,1.5-0.1,1.9c0.9-0.2,1.8-0.5,2.7-0.8c0.1,0.5,0.3,0.9,0.4,1.3c0.2,0.2,0.3,0.4,0.5,0.6c0.6-0.6,1.2-1.2,1.9-1.8
				c0.1,0.3,0.1,0.5,0.2,0.9c0.3-0.4,0.5-0.7,0.8-1.1c0.3,1,0.6,1.8,0.9,2.9c1.8,1,0.5-3.3,2.9-1.7c-1.3-1.3-1.7-2.6-1.3-4.1
				c0-0.1,0-0.3-0.1-0.3c-1.9-1.6,0.3-1.4,0.5-1.9c0.5,0.7,0.9,1.3,1.1,1.6c0.8,0.1,1.3,0.1,1.8,0.1c-0.5-0.3-1.1-0.7-1.6-1
				c0,0,0,0,0,0c1,0,2-0.1,2.9,0.1c0-0.3-0.2-0.6-0.4-0.9c-0.3-0.4-0.7-0.6-1-0.9c0.4-0.4,0.7-0.8,1-1.2c1.1,1,2.1,1.9,3.2,2.9
				c0.3-0.2,1.4-0.7,1.4-1c-0.3-1.5-0.1-3.2-1.9-4.1c-0.5-0.2-0.8-0.9-1.3-1.3c0.1-0.1,0.2-0.2,0.4-0.3c1,0.3,1.9,0.7,3.1,1.1
				c0,0.1,0.1,0.5,0.2,1.1c1.1-1.4,1-4.7,0.4-5.6c0.7-2.5,0.9-4.7,1.1-6.9v6.2c0.5-0.4,0.9-0.7,1.6-1.1c-0.8,1.4-1.4,2.5-2,3.7
				c0.5,0.4,1,0.7,1.3,1c0.4-0.9,0.7-1.7,1.1-2.6c0.4,1.1,1,2.4,0.6,3.2c-0.7,1.5-0.2,2.6,0.6,3.6c0,0.6-1.9,0.9-0.2,1.6
				c-0.3,0.6-0.7,1.1-1,1.7c0.1,0.2,0.3,0.3,0.4,0.5c2.5-0.7,3.7-3.4,6.3-4.6c-0.4,2.1-0.7,3.9-1.1,5.8c0.1,0,0.3,0.1,0.4,0.1
				c0.2-0.2,0.4-0.4,0.5-0.5c0.2,0.3,0.4,0.6,0.7,1c0.5-0.7,0.7-1.1,0.9-1.4c0.2,0.7,0,1.3-0.2,1.9c-0.2,0.5-0.7,1-0.7,1.4
				c0.1,0.6,0.6,1.1,0.9,1.6c0.1,0.1,0.2,0.1,0.2,0.2c0.7-0.1,1.3-0.2,2-0.4c-1.4,0.8-2.8,1.6-4.5,2.7c2.5-0.1,1.5,1.5,1.8,2.7
				c0.3-0.7,0.5-1.3,0.8-1.9c0.1,0.2,0.3,0.4,0.3,0.5c0.8-1.1,1.6-2.3,2.4-3.4c0,0.8,0.1,1.6,0.1,2.3c-0.6,0.7-1.1,1.4-1.7,2.1
				c0.1,0.1,0.2,0.2,0.2,0.3l1.7-0.6c-0.3,0.4-0.7,0.8-1,1.2c0.6,0,1.1,0,1.5,0c-0.2,0.1-0.7,0.5-1.4,0.9c0.5,0.1,0.8,0.2,1.1,0.3
				c-0.3,0.3-0.6,0.5-0.8,0.7c0.1,0.1,0.3,0.3,0.4,0.4c0.6-0.5,1.2-1.1,1.6-1.5c0,0.5-0.1,1.2-0.2,2c0.1,0,0.2,0,0.4,0
				c0.4-0.5,0.8-1.1,1.2-1.7c0.3,0.6,0.5,1,0.8,1.6c0.4-0.4,0.8-0.7,1.1-0.9c-0.2,0.9-0.4,1.7-0.6,2.6c0.1,0,0.2,0.1,0.4,0.1
				c0.2-0.3,0.4-0.6,0.6-0.9c0.2,0.6,0.4,1.2,0.6,1.8h1.8c-0.1,0.5-0.3,1-0.3,1.4c0,0.3,0.2,0.5,0.3,0.8c0.3-0.1,0.6-0.1,0.8-0.3
				c0.3-0.4,0.5-1,0.8-1.6c-0.9-0.6-1.3-1.3-0.3-2.3c0.2-0.2-0.2-1-0.4-1.4c-0.2-0.4-0.7-0.7-1.1-1c0.6,0.1,1.2,0.2,1.8,0.3
				c0-0.9,0.1-1.7,0.1-2.4c0.1,0,0.1,0,0.2,0c0,0.5,0.1,1,0.1,1.2c0.6-0.1,1.1-0.2,1.7-0.3c-0.2-0.6-0.4-1.3-0.6-2
				c0.1,0,0.2-0.1,0.3-0.1c0.3,0.6,0.5,1.2,0.8,1.8c1.3-0.8,1.7,0.4,2.4,1.5c0.2-1.8,0.4-3.2,0.5-4.4c0.6,0.4,1.1,0.8,1.6,1.2
				c0-0.5,0.2-1.1,0-1.6c-0.3-1.2-0.8-2.5-1.2-3.7c1.7-0.1,2.3,2.3,4.1,1.3c0.1,1,0.1,2,0.2,3.2c0.2,0,0.6-0.1,0.7-0.1
				c0.1,0.6,0.2,1.1,0.5,2.1c0.5-1.7,0.7-2.8,1.1-3.8c0.4-1.3,0.6-2.5,0.2-3.8c-0.3-1.1-0.2-2.3-1.1-3.3c-0.1-0.1,0.2-0.7,0.3-0.9
				c0.9,0.2,1.6,0.4,2.6,0.7c-0.9-1.8-1.7-3.3-0.5-4.8c0.2-0.3,1.4,0.2,2.2,0.3c0.2-1.1,0.4-2.2,0.6-3.4c-0.2,0,0,0,0.4,0.1
				c-0.4-1.3-0.7-2.4-1-3.5c0.1,0,0.3-0.1,0.4-0.1c0.3,0.4,0.6,0.9,1.2,1.7v-3.6c0.1,0,0.2,0,0.3,0v2.3c0.4-0.1,0.7-0.2,1.1-0.3
				c-0.6,2.8,1.7,5.6-0.8,8.1c0.2,0.1,0.3,0.1,0.5,0.2c1.2-1.1,2.4-2.3,3.7-3.4c0.1,0.1,0.3,0.2,0.4,0.3c-1,2-2,4.1-3.1,6.2
				c0.8,0.3,1.5,0.5,2.1,0.7c1-0.2,2-0.4,3.3-0.7c-1.2,1.6-2.1,2.9-3.1,4.2c0.1,0.1,0.3,0.2,0.4,0.4c0.9-0.8,1.7-1.6,2.6-2.5
				c1.7,1.9,2,1.7,3.6-1.8c0.4,0,0.8,0.1,1.3,0.1c-0.5,0.9-1,1.8-1.5,2.7c0.1,0.1,0.2,0.2,0.3,0.3c0.4-0.2,0.8-0.5,1.2-0.7
				c0.1,0.6,0.1,1.1,0.2,1.9c0.5-0.6,0.7-1,1-1.4c0.4,1.2,1.3,2.3-0.5,2.9c-0.2,0.1-0.4,0.9-0.2,1.2c1,1.4,1.1,2.9,1,4.5
				c0,0.3,0.1,0.7,0.2,1.1c-0.1,0.4-0.5,0.9-0.4,1.4c0.1,0.7,0.4,1.4,0.9,1.9c0.1,0.2,1,0,1.3-0.2c1.1-0.9,2.1-2,3.1-2.9
				c-0.2,1.5-0.4,3-0.6,4.6c0.1,0.1,0.3,0.2,0.4,0.3c0.1-0.3,0.3-0.6,0.5-1.1c0.1,1.5,0.2,2.7,0.2,3.5c1,1.1,1.8,2.1,2.6,3
				c0.3-0.6,0.4-1.2,0.8-1.6c0.4-0.4,1.1-1,1.7-0.9c1,0.1,0.4,0.8,0.3,1.3c0,0.2,0,0.4,0.2,0.5c1.5,1.5,0.3,2.4-0.7,3.4
				c-0.1,0.1-0.1,0.2-0.3,0.5c0.6-0.1,1-0.2,1.5-0.3c-1.4,2.8-2.7,5.6-4,8.3c1.3-0.6,2,0,2.2,0.8c-1.1,1.3-2,2.3-3.1,3.5
				c0.5,0,0.8,0,0.9-0.1c0.9-0.4,1.7-1.1,2.5-1.1c2.1-0.1,3.1-1.1,3.7-3c-0.7-0.2-1.3-0.4-1.9-0.5c0.1-0.1,0.3-0.1,0.4-0.2
				c-0.3-0.7-0.6-1.3-0.9-2.1c1,0.6,1.9,1.2,2.9,1.8c0.3-0.9,0.6-1.6,0.9-2.3c-0.3,2.9-0.3,2.9,1.3,3.3c0.3-2.3,0.6-4.6,1-6.9
				c0.5,1.1,1.1,2.2,1.7,3.5c0.1,0,0.5,0,1.1,0.1c-0.5,0.4-0.8,0.6-0.7,0.5c-0.1,1-0.2,1.8-0.3,2.5c0.3-0.1,0.9-0.2,1.5-0.4
				c-0.4,1.2-0.1,1.5,1.2,1c-0.4,1.1-0.8,2.5-1.5,2.8c-1.2,0.5-1.1,1.1-0.9,2.1c1.1-0.4,2-0.7,2.8-0.9c1.6,0.8-1.2,2.1,0.5,3.2
				c0.3,0.2-0.5,2-0.8,3c0.2,0,0.3,0.1,0.5,0.1c1-1.5,2-2.9,2.9-4.4c0.1,0.1,0.2,0.1,0.3,0.2c-0.1,0.6-0.2,1.1-0.2,1.7
				c0.3,0.1,0.7,0.3,1.5,0.6c-0.1-1,0.1-2.2-0.4-2.8c-1.2-1.6-0.5-3.1-0.3-5.2c0.5,1.3,0.8,2.1,1.1,2.9c1.3-0.8,1-1.5,0.6-2.7
				c-0.5-1.4-0.5-4.1,0.3-4.7c1.4-1,0.9-1.7,0.8-2.8c0-0.5,0.4-1,0.7-1.6c0.4,0.9,0.7,1.5,1,2.2c0.3-3.4,1.8-6.7,0.7-10
				c0.7,1.6,1.9,2.6,3.8,3c0.2-0.8,0.5-1.6,0.7-2.5c-1.6-0.7-1.9-1.8-1.1-3.4c0.2-0.3,0-0.8,0-1.2c0-1.2,0-2.3,0-3.5
				c0.1,0,0.2,0,0.4,0c0.3,1.4,0.6,2.8,0.9,4.3c0.2,0,0.3,0,0.5,0c0.2-1,0.5-1.9,0.7-2.9c0.2,0.6,0.4,1.3,0.8,2.3
				c0.3-1.2,0.9-2.2,0.6-2.7c-1.2-1.9-0.5-3.8-0.1-5.9c0.4,1.3,0.8,2.5,1.2,3.6c0.2-0.1,0.3-0.1,0.5-0.2c-0.3-1.1-0.5-2.2-0.8-3.4
				c0.4,0.1,0.5,0.2,0.7,0.2c0.2,0,0.3,0,0.7,0c-1.9-2.8,0.4-5,0.5-7.5c0.3,2,0.6,3.9,1,5.9c-0.3,0.9-0.5,1.8-0.8,2.8l0.4,0.2
				c0.4-0.3,0.7-0.6,1.3-1c-0.1,0.9-0.2,1.6-0.3,2.3c0.5-0.2,0.8-0.4,1.3-0.6c0.1,1.1,0.1,2,0.2,3c0.5-0.4,0.9-0.8,1.3-1.1
				c0.7,1.9-2.2,3.3-1.1,5.3c0.1-0.1,0.2-0.3,0.3-0.4c0.4,0.4,0.9,0.8,1.4,1.2c0.1-0.4,0.1-0.8,0.2-1.2c0.1,0,0.2,0,0.3,0
				c0.3,2.8,0.6,5.5,1,8.8c0.7-0.9,1.3-1.5,1.9-2.3v12.4c0.1,0,0.3,0,0.4,0c0.6-1.1,1.2-2.2,1.8-3.5c0.1,1.2,0.1,2.3,0.3,4
				c0.6-0.7,1-1,1.2-1.4c0.3-0.6,0.4-1.6,0.9-1.9c1.1-0.6,1.2-0.5,0.8-1.5c-0.1-0.4-0.3-0.8-0.3-1.1c0.2-2,0.4-4.1,0.6-6.3
				c0.6,2.2,1.1,4.3,1.6,6.3c0.3,0,0.5,0,0.8,0c0.1-0.8,0.3-1.6,0.3-2.4c0-0.7-0.1-1.4-0.1-2.1c1.3,1.8,2.6,3.5,3.8,5.1
				c0.2-0.1,0.4-0.2,0.5-0.3c-0.4-1-0.4-2.4-1.1-3.1c-1.6-1.5-2.3-3-1.8-5.2c0.2,0.5,0.3,1,0.5,1.5c0.1,0,0.2,0,0.3-0.1
				c0.2-1.5,0.4-3,0.6-4.5c0,2.3,1,3.8,3.2,4.5c0.1-0.1,0.2-0.2,0.3-0.3c-0.7-0.6-1.4-1.2-1.9-1.6c0-0.6-0.1-1.1-0.1-1.6
				c0-1.2-1.1-2.4-0.7-3.7c-0.7,0.3-1.4,0.6-2.1,0.9c-0.1-0.2-0.1-0.4-0.2-0.6c0.9-0.7,1.8-1.3,2.8-2.1c0.2,0.3,0.5,0.6,0.9,1.1
				c-0.2,0.1-0.4,0.2-0.6,0.3c0.3,1.4,0.7,2.8,1,4.1c0.2,0,0.4-0.1,0.7-0.1c-0.2-1.2-0.6-2.4-0.5-3.6c0.1-1.5,0.6-2.9,1-4.7
				c0.4,1.4,0.7,2.4,0.8,2.9c0.5-3.2,1.1-6.8,1.7-10.4c0.8,1.4,0,3,1.3,4.1c-0.1,1.5-0.2,3-0.2,4.6c0.2,0,0.4,0.1,0.7,0.1
				c0.4-0.7,0.8-1.5,1.3-2.3c0.1,0.5,0.2,0.9,0.2,1.3c0.2,0,0.3,0.1,0.5,0.1c0.5-1.2,0.9-2.3,1.5-3.8c0.1,1.3,0.1,2.3,0.2,3.2
				c0.6-1,0.9-2.1,0.9-3.2c0-1-0.7-2.6-0.2-3c1.4-1.3,0.5-2.9,1.4-4.2c0.2,1.8,0.1,3.5,0.2,5.3c0,0.3,0.5,0.6,0.8,0.9
				c0.2,2.6,0.4,5.4,0.6,8.1c0.2,0,0.4,0,0.6,0.1c0.4-1.3,0.7-2.7,1.1-4.1c0.3,0.4,0.6,0.6,0.9,0.9c0.5-0.8,1-1.7,1.5-2.5
				c0.8,2.2,0.2,5.2,3.2,6.3c0.2-0.4,0.4-0.8,0.6-1.2c-1.1-0.5-1.8-0.9-1.7-2.5c0.1-1.4-0.7-2.8-1-4.3c0.1,0,0.2,0,0.3,0
				c0.4,0.5,0.8,1,1.4,1.8c-0.4-2.3-0.6-4.1-0.9-5.9c0.1,0,0.2,0,0.4,0c0.2,0.3,0.3,0.5,0.6,1c0.2-0.8,0.3-1.3,0.4-1.6
				c0.4,1,0.9,2.1,1.4,3.4c0.2-0.9,0.3-1.4,0.5-2.2c0.3,0.4,0.5,0.6,0.7,0.9c0.2,0,0.3-0.1,0.5-0.1c-2.5-3-2-6.2-1-9.4
				c0.2,0.3,0.5,0.6,0.8,1.1c0.1-0.7,0.1-1.2,0.2-1.8c0.2,0.4,0.3,0.7,0.5,1V406c0.2,0,0.3,0,0.5,0c0.2,2.8,0.4,5.6,0.6,8.7
				c0.7-0.9,1.3-1.7,1.9-2.5c0.1,0,0.2,0.1,0.3,0.1c-0.4,3-0.9,5.9-1.3,8.9c0.2,0,0.3,0.1,0.5,0.1c0.3-0.4,0.7-0.8,1.2-1.3
				c0.2,1.5,0.3,2.7,0.5,3.9c0.2,0.1,0.4,0.2,0.5,0.2c0.7-1.2,1.3-2.3,2-3.5l0.3,0.1c-0.1,1.3-0.3,2.7-0.4,3.8
				c0.5,0.1,1,0.2,1.5,0.3c0-0.3,0.1-0.9,0.1-1.5c0.9,1.1,1.7,2.3,2.5,3.4c0.2-0.2,0.4-0.3,0.6-0.5c-1.2-1.6-2.5-3.1-3.6-4.7
				c-0.4-0.7-0.5-1.6-0.7-2.4c0.2,0,0.3-0.1,0.5-0.1c0.7,0.9,1.4,1.8,2,2.7c0.1-1-0.2-1.9-0.3-2.9c-0.2-1-0.2-2.1-0.2-3.2
				c0.6,2.3,1.4,3.3,2.9,3.4c-0.1,0.8-0.1,1.6-0.2,2.5h1.7c-0.1-0.8,0-1.5-0.3-2.1c-0.7-1.7-1.6-3.4-2.4-5.1
				c-0.3-0.6-0.3-1.3-0.4-1.9c0.1,0,0.2,0,0.3,0c0.6,0.8,1.2,1.7,2.1,3c0.5-1.9,0.9-3.4,1.4-4.9c0.4,0.5,0.6,0.8,0.9,1.1
				c0.3-0.7,0.4-1.4,0.1-1.9c-1.4-2.6-1.5-2.6-0.8-5.3c0.2,0.5,0.4,1.2,0.6,1.8c0.8-1.9-1.2-3.8,0.6-5.5c0.1,0,0-0.2,0-0.3
				c0-1,0-1.9,0-2.9c0.3,0,0.6,0,0.8,0c0.2,1.8,0.3,3.6,0.5,5.8c0.5-1,0.8-1.7,1.3-2.7c-0.1,1.8-0.2,3.2-0.3,4.9
				c0.4-0.4,0.5-0.6,0.6-0.6v4.8l0.5,0c0.5-0.9,1-1.9,1.4-2.8c0.1,0,0.3,0,0.4,0c-0.2,3-0.5,6-0.7,9.4c0.7-1.3,1.3-2.4,1.8-3.4
				c0.4,1,0.9,2.2,1.4,3.4c0.2,1-1.7,2.3,0.7,3.3c0.6-1,1.1-2.1,1.7-3.2c0.6,2.1,0,4.8-1.7,5.6c-0.6,0.3-1.3,0.4-1.7,0.8
				c-0.4,0.4-0.4,1.1-0.6,1.7c0.5,0,1,0.1,1.4-0.1c0.5-0.2,1-0.6,1.4-0.9c0.1,0.1,0.3,0.2,0.4,0.3c-0.5,0.9-0.8,2-1.5,2.6
				c-1.8,1.5-2.4,3-1.9,5.2c0.7-0.1,1.4-0.2,2.1-0.3c1.1-0.2,2.2-0.2,1.6-2c-0.2-0.6,0.4-1.4,0.6-2.2c0.2,0.1,0.4,0.1,0.5,0.2v4.6
				c0.6-0.9,0.9-1.4,1.3-1.8c0.4-0.4,0.9-0.7,1.3-1c-0.5-0.5-0.9-1-1.4-1.7c1.5,0,3.1-1.8,3.1-2.9c0.1-1.6,0.3-3.1,0.5-5.1
				c1,1.6,1.7,2.9,2.4,4.1c0.1-0.1,0.2-0.1,0.3-0.2c-0.1-2.3-0.3-4.6-0.4-7.1c0.7,0.3,0.9,0.4,1.2,0.5c0.4-1.5,0.9-2.8,1.4-4.6
				c0.6,2,1.1,3.6,1.7,5.5c0.7-0.7,1.1-1.2,2-2c-0.3,2.1-0.5,3.8-0.7,5.5c0.1,0,0.2,0,0.3,0.1c0.4-1,0.8-2,1.4-3.5
				c1.2,4.4,1.7,8.4,0.6,12.5l0.5,0.2c0.7-1.2,1.3-2.5,2-3.7c0.1,0,0.2,0.1,0.3,0.1c-0.1,0.9-0.1,1.8-0.2,3.2c0.6-0.8,0.9-1.2,1.5-2
				c-0.2,2.3-0.3,4.2-0.4,6.1c0.2-0.2,0.5-0.4,0.7-0.6c0.4-2.3,0.7-4.6,0.6-6.9c0-0.4-0.1-0.7-0.1-1c0-0.3,0-0.6,0-1
				c1.7-1.4,3-3.4,3.1-5.6c0.2-3.1,0.1-6.1-0.2-9.1c0.1-0.1,0.3-0.1,0.4-0.2c0.8-0.4,1.7-0.6,2.5-0.9c0.1-2.8-1.6-5.6,0.5-8
				c0.2,0.7,0.5,1.4,0.9,2.6c0.2-1.2,0.3-2,0.4-2.9c0.1,0,0.1,0,0.1,0c0.1,0.2,0.1,0.4,0.2,1c0.1-1.4,0.3-2.4,0.4-3.4
				c0.1,0,0.2,0,0.3-0.1c0.2,0.6,0.4,1.1,0.7,2c0.1-1,0.2-1.6,0.3-2.7c0.6,1.7,0.6,3.6,2.1,3.7c0.1,0,0.2-0.1,0.2-0.1
				c-0.3-2.9-0.1-5.8-0.7-8.7c-0.4-1.7-0.1-3.7-0.1-5.5c0.2,0,0.3,0,0.5,0c0.1,0.8,0.3,1.6,0.4,2.4c1.9,0,0.7,2.6,1.6,3.5
				c0.3-1.1,0.5-2.1,0.1-3.6c-0.4-1.4,0.1-3.4,0.2-5.1c0.1,0,0.2,0,0.4,0c0.3,0.8,0.5,1.5,0.8,2.3c0.1,0,0.2,0,0.3,0
				c-0.2-2.2-0.4-4.3-0.6-6.5c0.1,0,0.3-0.1,0.4-0.1c0.2,0.5,0.3,0.9,0.5,1.4l0.3,0v-3.5c0.1,0,0.2,0,0.4,0c0.2,1.1,0.4,2.3,0.5,3.1
				c0.6,0,1.4,0.2,1.5,0c0.2-0.7,0.4-1.8,0.1-2.3c-1.2-2.2-0.5-4.5-0.7-6.7c0.5,0,0.8,0.2,0.9,0.1c0.5-0.9,0.9-1.8,1.5-2.9
				c0.1,0.5,0.2,0.8,0.2,1c0,0,0.1,0,0.1,0v-3.9c0.1,0,0.2-0.1,0.3-0.1c0.3,0.6,0.5,1.2,0.7,1.5c0.4-1,0.9-2.1,1.2-3.4
				c0.1-0.5-0.3-1.3-0.2-2c0.1-0.7,0.4-1.4,0.6-2.1c0.9,4.1,1.7,8.3,2.7,12.7c0.3-0.2,0.5-0.3,0.8-0.6c0,0.8,0,1.6,0,2.4
				c0.2,0,0.4,0.9,0.6,2.8c0.3-0.7,0.6-1.3,0.8-1.9c0.1,0,0.2,0.1,0.3,0.1c-0.2,1.4-0.4,2.7-0.4,4.1c0,1.3,0.3,2.6,0.5,4.2
				c0.4-0.5,0.8-0.9,1.1-1.3c-0.1,1.1-0.1,2.4-0.2,3.9c0.3-0.4,0.4-0.7,0.6-0.9c0.9,3.1,0,6.1-0.7,9.1c0.1,0.1,0.2,0.1,0.3,0.2
				c0.4-0.8,0.8-1.6,1.3-2.7c0,1.4,0.1,2.4,0.1,3.3c0.2,0,0.3,0,0.5,0c-0.1-1.7-0.2-3.5-0.3-5.2c0-1.4,0-2.8,0-4.2
				c0.1,0,0.2,0,0.3,0c0.2,0.8,0.5,1.5,0.8,2.4c0-2-0.1-3.9,0-5.8c0.1-1.2,0.4-2.4,0.9-3.7c0.2,1.3,0.4,2.6,0.7,4.3
				c0.2-0.9,0.3-1.4,0.4-1.9c0.2,0.5,0.4,1.1,0.7,1.9c0.1-0.2,0.2-0.3,0.3-0.5c0.3-1.5,0.5-2.7,0.6-3.8c0.1-1.4,0-2.8,0.1-4.2
				c0.2,0.8,0.3,1.6,0.4,2c0.4-1.2,0.8-2.7,1.2-4.1c0.1-0.2,0.3-0.3,0.4-0.5c0.1,0.3,0.3,0.5,0.4,0.8c0.1,0.4,0.2,0.9,0.5,1.3
				c-0.1-0.8-0.1-1.7-0.4-2.5c-0.3-0.8-0.8-1.5,0.1-2.2c0.1-0.1-0.1-0.8-0.2-1.3c-0.1-1-0.2-2.1-0.3-3.1l0.5-0.1
				c0.3,1.3,0.5,2.5,0.9,4.2c0.2-1.3,0.3-2.2,0.5-3.3c0.4,0.6,0.7,1.1,1.3,2c-0.1-2.9-0.2-5.3-0.4-8.2c0.4,0.5,0.7,0.8,0.9,1.1
				c-0.1-1.9-0.2-3.8-0.3-6.1c0.4,0.8,0.7,1.2,1.1,2c-0.1-1.4-0.1-2.3-0.1-3.2c0.1,0,0.2-0.1,0.3-0.1c0.5,1.2,1,2.5,1.5,3.7
				c0.1-0.1,0.3-0.1,0.4-0.2c-0.8-4.1-0.5-8.1,0.5-12.5c0.4,1.5,0.7,2.5,1,3.5c0.1,0,0.1,0,0.2-0.1c-0.2-1.7-0.3-3.4-0.5-5.5
				c0.6,0.9,0.9,1.3,1.4,2c0.4-1.9,0.8-3.5,1.3-5.5c0.4,1.8,0.7,3.2,1,4.6c0.2-0.1,0.4-0.2,0.9-0.5c-0.1,2.5-0.2,4.8-0.3,7.1
				c0.1,0.1,0.1,0.1,0.2,0.2c0.5-1.2,1.1-2.4,1.8-4.1c0.2,2,0.3,3.5,0.4,5.1c0,1.1,1.2,2.9,2.3,2.9c-0.4,0.7-0.7,1.1-1.1,1.7
				c0.3,0.3,0.7,0.6,1,1c0.3,0.4,0.5,0.9,0.9,1.8v-4.6c0.1-0.1,0.3-0.1,0.4-0.2c0.2,0.7,0.6,1.6,0.5,2.2c-0.5,1.8,0.4,1.8,1.2,2
				c0.5,0.1,1,0.2,1.6,0.3c0.4-2.1-0.1-3.6-1.4-5.2c-0.5-0.6-0.8-1.7-1.1-2.6c0.1-0.1,0.2-0.2,0.3-0.3c0.3,0.3,0.7,0.7,1.1,0.9
				c0.3,0.2,0.7,0.1,1,0.1c-0.1-0.6-0.2-1.3-0.4-1.7c-0.3-0.4-0.8-0.5-1.2-0.8c-1.2-0.8-1.7-3.6-1.2-5.6c0.5,1.2,0.9,2.2,1.3,3.2
				c1.8-1,0.4-2.3,0.5-3.3c0.4-1.2,0.7-2.4,1-3.4c0.4,1,0.8,2.1,1.3,3.4c-0.2-3.4-0.4-6.4-0.5-9.4c0.1,0,0.2,0,0.3,0
				c0.4,0.9,0.7,1.9,1.1,2.8c0.1,0,0.2,0,0.4,0v-4.8c0,0.1,0.1,0.2,0.4,0.6c-0.1-1.7-0.2-3.1-0.3-4.9c0.4,1,0.6,1.7,1,2.7
				c0.1-2.2,0.3-4,0.4-5.8c0.2,0,0.4,0,0.6,0c0,1,0,1.9,0,2.9c0,0.1-0.1,0.3,0,0.3c1.4,1.7-0.1,3.7,0.4,5.5c0.1-0.7,0.3-1.3,0.4-1.8
				c0.5,2.7,0.5,2.7-0.6,5.3c-0.2,0.5-0.1,1.1,0.1,1.9c0.2-0.3,0.4-0.6,0.7-1.1c0.3,1.6,0.6,3,1,4.9c0.7-1.3,1.1-2.1,1.5-3
				c0.1,0,0.2,0,0.2,0c-0.1,0.6-0.1,1.3-0.3,1.9c-0.6,1.7-1.2,3.4-1.8,5.1c-0.2,0.6-0.1,1.4-0.2,2.1h1.2c0-0.9-0.1-1.7-0.1-2.5
				c1.1,0,1.7-1.1,2.1-3.4c-0.1,1.1-0.1,2.1-0.2,3.2c-0.1,0.9-0.3,1.8-0.2,2.9c0.5-0.9,1-1.8,1.5-2.7c0.1,0,0.2,0.1,0.4,0.1
				c-0.2,0.8-0.2,1.7-0.5,2.4c-0.8,1.6-1.8,3.1-2.7,4.7c0.2,0.2,0.3,0.3,0.5,0.5c0.6-1.1,1.2-2.2,1.9-3.4c0,0.6,0.1,1.2,0.1,1.5
				c0.4-0.1,0.7-0.2,1.1-0.3c-0.1-1.1-0.2-2.4-0.3-3.8l0.2-0.1c0.5,1.2,1,2.3,1.5,3.5c0.1-0.1,0.3-0.2,0.4-0.2
				c0.1-1.2,0.2-2.4,0.3-3.9c0.4,0.6,0.6,0.9,0.8,1.3c0.1,0,0.2-0.1,0.3-0.1c-0.3-3-0.6-5.9-0.9-8.9c0.1,0,0.1-0.1,0.2-0.1
				c0.5,0.8,0.9,1.6,1.4,2.5c0.2-3.1,0.3-5.9,0.4-8.7c0.1,0,0.2,0,0.4,0v4.5c0.1-0.4,0.2-0.6,0.3-1c0.1,0.7,0.1,1.1,0.2,1.8
				c0.2-0.4,0.4-0.8,0.6-1.1c0.8,3.2,1.1,6.4-0.7,9.4l0.4,0.1c0.1-0.2,0.3-0.4,0.5-0.9c0.1,0.8,0.2,1.4,0.4,2.2
				c0.4-1.3,0.7-2.4,1-3.4c0.1,0.3,0.1,0.8,0.3,1.6c0.2-0.5,0.3-0.7,0.4-1c0.1,0,0.2,0,0.3,0c-0.2,1.8-0.4,3.6-0.7,5.9
				c0.5-0.8,0.8-1.3,1-1.8c0.1,0,0.1,0,0.2,0c-0.3,1.4-0.8,2.9-0.8,4.3c0.1,1.6-0.5,2-1.3,2.5c0.2,0.4,0.3,0.8,0.5,1.2
				c2.2-1.1,1.8-4.1,2.4-6.3c0.4,0.9,0.7,1.7,1.1,2.5c0.2-0.3,0.4-0.5,0.6-0.9c0.3,1.4,0.5,2.7,0.8,4.1c0.1,0,0.3,0,0.4-0.1
				c0.1-2.7,0.3-5.5,0.4-8.1c0.2-0.3,0.6-0.6,0.6-0.9c0.1-1.8,0-3.5,0.2-5.3c0.7,1.3,0,3,1,4.2c0.3,0.4-0.2,1.9-0.2,3
				c0,1.1,0.3,2.2,0.7,3.2c0-0.9,0.1-1.8,0.1-3.2c0.5,1.5,0.8,2.7,1.1,3.8c0.1,0,0.2-0.1,0.4-0.1c0-0.4,0.1-0.8,0.2-1.3
				c0.4,0.9,0.7,1.6,1,2.3c0.2,0,0.3-0.1,0.5-0.1c-0.1-1.5-0.1-3.1-0.2-4.6c1-1,0.4-2.7,1-4.1c0.4,3.6,0.8,7.2,1.2,10.4
				c0.1-0.5,0.3-1.6,0.6-2.9c0.3,1.8,0.6,3.3,0.7,4.7c0.1,1.2-0.2,2.4-0.4,3.6c0.2,0,0.3,0.1,0.5,0.1c0.3-1.6,0.6-3.1,0.9-4.8
				c1.3,1.6,0,3.1,0,4.7c0,0.5,0,0.9-0.1,1.6c-0.4,0.4-0.9,1-1.4,1.6l0.2,0.3c1.6-0.7,2.4-2.2,2.4-4.5c0.1,1.5,0.3,3,0.4,4.5
				c0.1,0,0.2,0,0.2,0.1c0.1-0.5,0.2-0.9,0.4-1.5c0.4,2.2-0.2,3.7-1.3,5.2c-0.5,0.7-0.6,2-0.8,3.1c0.1,0.1,0.3,0.2,0.4,0.3
				c0.9-1.7,1.8-3.3,2.8-5.1c0,0.6-0.1,1.4-0.1,2.1c0,0.8,0.2,1.6,0.2,2.4c0.2,0,0.4,0,0.6,0c0.4-2,0.7-4.1,1.2-6.3
				c0.2,2.3,0.3,4.3,0.5,6.3c0,0.4-0.1,0.8-0.2,1.1c-0.3,1-0.2,0.9,0.6,1.5c0.4,0.3,0.4,1.3,0.7,1.9c0.2,0.4,0.5,0.7,0.9,1.4
				c0.1-1.7,0.1-2.8,0.2-4c0.5,1.3,0.9,2.4,1.3,3.5c0.1,0,0.2,0,0.3,0v-12.4c0.5,0.8,0.9,1.4,1.4,2.3c0.3-3.2,0.5-6,0.7-8.8
				c0.1,0,0.1,0,0.2,0c0,0.4,0.1,0.8,0.1,1.2c0.4-0.4,0.7-0.8,1-1.2c0.1,0.1,0.2,0.3,0.2,0.4c0.9-2-1.3-3.4-0.8-5.3
				c0.3,0.3,0.6,0.7,1,1.1c0-1,0.1-1.9,0.1-3c0.3,0.2,0.6,0.4,0.9,0.6c-0.1-0.7-0.2-1.4-0.3-2.3c0.4,0.4,0.7,0.7,0.9,1
				c0.1-0.1,0.2-0.1,0.3-0.2c-0.2-0.9-0.4-1.9-0.6-2.8c0.2-1.9,0.5-3.9,0.7-5.9c0.1,2.4,1.8,4.7,0.4,7.5c0.3,0,0.4,0,0.5,0
				c0.1,0,0.2-0.1,0.5-0.2c-0.2,1.3-0.4,2.3-0.6,3.4c0.1,0.1,0.2,0.1,0.4,0.2c0.3-1.1,0.5-2.3,0.9-3.6c0.3,2.1,0.8,3.9-0.1,5.9
				c-0.2,0.5,0.2,1.5,0.4,2.7c0.3-1,0.4-1.6,0.6-2.3c0.2,1,0.4,1.9,0.5,2.9c0.1,0,0.2,0,0.3,0c0.2-1.4,0.5-2.8,0.7-4.3
				c0.1,0,0.2,0,0.3,0c0,1.2,0,2.3,0,3.5c0,0.4-0.1,0.9,0,1.2c0.6,1.6,0.4,2.7-0.8,3.4c0.2,0.9,0.4,1.7,0.5,2.5c1.6-0.4,2.6-1.7,3-4
				c-1.3,3.7,0.1,7.2,0.3,11c0.2-0.6,0.4-1.2,0.7-2.2c0.2,0.7,0.5,1.2,0.5,1.6c0,1-0.4,1.8,0.6,2.8c0.6,0.6,0.6,3.2,0.2,4.7
				c-0.3,1.2-0.5,1.9,0.4,2.7c0.2-0.9,0.5-1.7,0.8-2.9c0.2,2.1,0.7,3.6-0.2,5.2c-0.3,0.6-0.2,1.8-0.3,2.8c0.6-0.3,0.9-0.5,1.1-0.6
				c-0.1-0.6-0.1-1.1-0.2-1.7c0.1-0.1,0.1-0.1,0.2-0.2c0.7,1.5,1.4,2.9,2.2,4.4c0.1,0,0.2-0.1,0.3-0.1c-0.2-1-0.8-2.8-0.6-3
				c1.2-1-0.8-2.3,0.3-3.2c0.6,0.3,1.3,0.6,2.1,0.9c0.1-1,0.2-1.6-0.7-2.1c-0.5-0.3-0.8-1.6-1.1-2.8c0.9,0.5,1.2,0.1,0.9-1
				c0.5,0.2,0.9,0.3,1.1,0.4c-0.1-0.7-0.1-1.4-0.2-2.5c0.1,0.1-0.2-0.2-0.5-0.5c0.5,0,0.7-0.1,0.8-0.1c0.5-1.3,0.8-2.4,1.2-3.5
				c0.2,2.3,0.5,4.6,0.7,6.9c1.2-0.4,1.2-0.4,0.9-3.3c0.2,0.7,0.4,1.5,0.7,2.3c0.7-0.6,1.4-1.2,2.1-1.8c-0.2,0.7-0.4,1.4-0.6,2.1
				c0.1,0.1,0.2,0.1,0.3,0.2c-0.4,0.2-0.9,0.3-1.4,0.5c0.4,1.9,1.2,2.9,2.7,3c0.6,0.1,1.2,0.8,1.9,1.1c0.1,0.1,0.3,0,0.7,0.1
				c-0.8-1.3-1.4-2.3-2.3-3.5c0.1-0.8,0.7-1.4,1.6-0.8c-1-2.7-1.9-5.4-3-8.3c0.4,0.1,0.7,0.2,1.1,0.3c-0.1-0.3-0.2-0.4-0.2-0.5
				c-0.8-1-1.7-1.9-0.5-3.4c0.1-0.1,0.1-0.3,0.1-0.5c-0.1-0.5-0.5-1.3,0.2-1.3c0.4,0,0.9,0.5,1.2,0.9c0.3,0.4,0.4,1,0.6,1.6
				c0.6-1,1.2-1.9,1.9-3c0-0.9,0.1-2.1,0.2-3.5c0.2,0.5,0.3,0.8,0.4,1.1c0.1-0.1,0.2-0.2,0.3-0.3c-0.1-1.6-0.3-3.1-0.4-4.6
				c0.7,0.9,1.5,2,2.3,2.9c0.2,0.3,0.9,0.4,1,0.2c0.3-0.5,0.6-1.2,0.6-1.9c0.1-0.5-0.2-1-0.3-1.4c0.1-0.4,0.2-0.8,0.2-1.1
				c-0.1-1.6,0-3.1,0.7-4.5c0.1-0.2,0-1.1-0.1-1.2c-1.3-0.6-0.6-1.7-0.3-2.9c0.2,0.4,0.4,0.8,0.8,1.4c0.1-0.8,0.1-1.3,0.2-1.9
				c0.3,0.3,0.6,0.5,0.9,0.7l0.2-0.2l-3.4-5.3l-80-20.7l-32-14.4l-57.6-12.1l-59.1-12.1l-39.1-4l0,0c-0.9,0-1.8,0-2.7,0
				c-5.1,0-10.9-0.3-17.6-0.6c-6.7-0.3-14.3-0.7-23.6-1c-4.3-0.1-8.4-0.2-12-0.2c-8,0-13.2,0.3-17.3,0.5c-2.8,0.1-4.9,0.3-7.3,0.3
				c-2.8,0-5.5-0.2-8.8-0.5c-1.3-0.1-2.5-0.2-3.8-0.2c-5.8,0-11.5,1.4-18.2,2.9c-10,2.4-22.3,5.3-41.2,5.3
				c-28.2,0-36.2-2.7-37.6-3.3l-0.4-0.5l-1.5-0.2c-0.2,0-16.1-2.4-25.6-4c-3.1-0.5-6.5-0.8-10-0.8c-4.2,0-7.8,0.4-9.5,0.6
				c-4.9-1.8-10.5-4-11.6-4.7c-1.3-0.9-4.2-2.5-7.5-4.4c-1.7-0.9-3.6-2-5.1-2.9c-1.1,0-2.1-0.1-3.2-0.2c-10.2-0.9-65-5.1-65-5.1
				l-23.9-3.2l-1.6-4.6c0,0,12.1-2.1,13.3-2.1s15.9-4.6,15.9-4.6l17-6.8l-20.8,5.3l-10.2,2.7l-9.8,1.7l-16.3,3.8l-10.5,4.4
				c-1,0-2.1,0.1-3.1,0.1l-11.9-3.9l-6.1-1.5l14.2-8.7l12.6-3.5l17.7-3.5v-4.5c0,0-14.6,3.5-20.7,5.1c-6.1,1.5-18.7,5.6-18.7,5.6
				H68.5l-10.9,5.4l0,0l-10.8-2.4h-2.2c1.8-1.5,4.6-3.7,6-4.5c11.2-6.4,35.1-21.4,35.1-21.4l20.1,1.3l11.9-2.2l23.1-3.6l26,0.5l23-4
				l6.3,0.1c0,0,6.9-3.1,7.9-3.6l0.2-0.1l0.2-0.1l20.9-12.8c19-11.6,48-29.2,50.3-30.3c1.3-0.6,2.5-1.3,4-2.2
				c2.8-1.6,6.5-3.8,13.7-7.4c4-2,8.4-3.9,12.6-5.8c7.9-3.5,15.4-6.8,20.9-10.6c5.8-4,12.4-7.7,17.8-10.6c1.9-1,3.6-2,5.1-2.8
				c5-2.9,22-8.3,27.9-10c5.4-1.5,23.6-5.5,23.8-5.6l1-0.2l0.8-0.7l2.8-2.3l4.1-0.6c0,0,8.2,1.6,8.6,1.4c0.3-0.2,7.9,0,7.9,0l-1,3
				l-6.9,2.4l4.1,3.6l11.7,3.2l22.5,8l19.9,5.2l7.8,0.8l10.6,7.4l7.2,1.4l15.5,6.4l13.3,4.6l14.3,13.1l-13.3-13.9l-12.9-4.6
				l-13.7-7.2l-7.6-1.5L493,131l2.8-3.8L506,133c0,0,24.3,8.2,25.1,8.4c0.8,0.2,32.3,15.7,32.3,15.7l9.8,6.6
				c0,0,28.3,23.5,29.1,23.5c0.8,0,1.2,0,1.2,0l-29.3-24.7l-8.6-6.8c0,0-20.2-10-28.9-14.4l6.4,2.8l0.3,0.1l0.3,0.1l54.4,15.2
				l60.8,24.8l0.8,0.3h0.9c3.6,0,15,0.7,20,4.1c3.6,2.4,9.5,5.7,15.1,8.9c5.8,3.3,11.8,6.7,14.5,8.6c5.7,4.1,51.3,32.7,53.3,33.9
				l0.2,0.1l0.2,0.1l14.3,7l-9.7,0.2l-4.5,2.2l-14.6-2.6L712.7,224l-15.5-5.7l27.3,17l25.8,15.5l12.4,9.6l3.7,4.7l-13.9,0.3l-0.3,0
				l-0.3,0l-5,0.7c-2.9-1.1-5.5-2.1-5.6-2.1l-0.3-0.1l-0.3-0.1l-24.2-5.7v-0.3L700.6,247l-10.6-9.3l10.6,13.3l-16.5,6.8h-8.4h-0.7
				l-0.7,0.2l-16.6,5.1l-0.8,0.3l-31.1-8.6l-0.6-0.2h-70.8l-0.9,0.5l-16.7,8l-6.1,10.8l45.5,16.9l55.3,10.6l30.5,15.1l84.5,22.6
				l2.1,4.3c0.7,0.2,1.2,0.3,1.8,0.5c0.4-0.2,1-0.5,1.5-0.7c-0.8-2.1-1.5-4.2-2.3-6.2c0.1-0.1,0.2-0.2,0.3-0.3
				c0.9,1.1,1.8,2.3,2.7,3.4c0.1-0.1,0.3-0.1,0.4-0.2c-1.8-2.6-0.1-5.3-0.6-8.1c0.3,0.1,0.5,0.2,0.8,0.3v-2.3c0.1,0,0.1,0,0.2,0v3.6
				c0.4-0.8,0.7-1.2,0.9-1.7l0.3,0.1c-0.2,1.1-0.5,2.3-0.8,3.5c0.3-0.1,0.5-0.1,0.3-0.1c0.1,1.2,0.3,2.3,0.4,3.4
				c0.6-0.1,1.4-0.6,1.6-0.3c0.9,1.5,0.3,3-0.4,4.8c0.8-0.3,1.3-0.5,1.9-0.7c0,0.2,0.3,0.8,0.2,0.9c-0.7,0.9-0.6,2.2-0.8,3.3
				c-0.3,1.3-0.1,2.6,0.1,3.8c0.2,1.1,0.4,2.2,0.8,3.8c0.2-1,0.2-1.5,0.3-2.1c0.1,0,0.3,0.1,0.5,0.1c0.1-1.1,0.1-2.2,0.2-3.2
				c1.4,1,1.8-1.4,3-1.3c-0.3,1.3-0.6,2.5-0.9,3.7c-0.1,0.5,0,1.1,0,1.6c0.4-0.4,0.8-0.8,1.2-1.2c0.1,1.2,0.2,2.6,0.4,4.4
				c0.6-1.1,0.8-2.3,1.8-1.5c0.2-0.6,0.4-1.2,0.6-1.8c0.1,0,0.1,0.1,0.2,0.1c-0.2,0.7-0.3,1.5-0.4,2c0.4,0.1,0.8,0.2,1.2,0.3
				c0-0.2,0-0.7,0.1-1.2c0,0,0.1,0,0.1,0c0,0.7,0,1.5,0.1,2.4c0.5-0.1,0.9-0.2,1.3-0.3c-0.3,0.3-0.6,0.6-0.8,1
				c-0.2,0.4-0.4,1.2-0.3,1.4c0.8,1,0.4,1.7-0.2,2.3c0.2,0.6,0.4,1.1,0.6,1.6c0.1,0.2,0.4,0.2,0.6,0.3c0.1-0.3,0.2-0.5,0.2-0.8
				c0-0.5-0.1-1-0.2-1.4h1.3c0.1-0.6,0.3-1.2,0.4-1.8c0.2,0.3,0.3,0.6,0.5,0.9l0.3-0.1c-0.1-0.9-0.3-1.7-0.4-2.6
				c0.2,0.3,0.5,0.6,0.8,0.9c0.2-0.6,0.4-1,0.6-1.6c0.3,0.6,0.6,1.2,0.9,1.7c0.1,0,0.2,0,0.3,0c0-0.8-0.1-1.5-0.1-2
				c0.3,0.4,0.7,0.9,1.1,1.5c0.1-0.1,0.2-0.3,0.3-0.4c-0.2-0.2-0.4-0.5-0.6-0.7c0.2-0.1,0.4-0.1,0.8-0.3c-0.5-0.4-0.9-0.7-1-0.9
				c0.3,0,0.7,0,1.1,0c-0.2-0.4-0.5-0.8-0.7-1.2c0.4,0.2,0.8,0.4,1.2,0.6c0.1-0.1,0.1-0.2,0.2-0.3c-0.4-0.7-0.8-1.4-1.2-2.1
				c0-0.7,0.1-1.5,0.1-2.3c0.6,1.2,1.2,2.3,1.8,3.4c0-0.1,0.1-0.2,0.2-0.5c0.2,0.6,0.4,1.2,0.6,1.9c0.2-1.2-0.5-2.8,1.3-2.7
				c-1.3-1-2.3-1.9-3.3-2.7c0.5,0.1,1,0.2,1.5,0.4c0,0,0.1-0.1,0.2-0.2c0.2-0.5,0.6-1,0.7-1.6c0-0.4-0.4-0.9-0.5-1.4
				c-0.2-0.6-0.3-1.2-0.2-1.9c0.2,0.3,0.3,0.7,0.7,1.4c0.2-0.3,0.3-0.6,0.5-1c0.1,0.1,0.2,0.3,0.3,0.5c0.1,0,0.2-0.1,0.3-0.1
				c-0.2-1.8-0.5-3.7-0.8-5.8c1.9,1.2,2.8,3.9,4.7,4.6c0.1-0.2,0.2-0.3,0.3-0.5c-0.3-0.6-0.5-1.1-0.8-1.7c1.2-0.7-0.1-1-0.1-1.6
				c0.6-1,0.9-2.1,0.4-3.6c-0.3-0.8,0.1-2.1,0.4-3.2c0.3,0.8,0.5,1.7,0.8,2.6c0.3-0.3,0.6-0.6,1-1c-0.5-1.1-0.9-2.2-1.5-3.7
				c0.5,0.5,0.8,0.8,1.2,1.1v-6.2c0.1,2.2,0.3,4.4,0.8,6.9c-0.5,0.9-0.5,4.2,0.3,5.6c0.1-0.6,0.1-1.1,0.2-1.1
				c0.9-0.4,1.6-0.7,2.3-1.1c0.1,0.1,0.2,0.2,0.3,0.3c-0.3,0.5-0.6,1.1-0.9,1.3c-1.3,0.9-1.2,2.6-1.4,4.1c0,0.3,0.7,0.7,1,1
				c0.8-1,1.6-2,2.4-2.9c0.3,0.4,0.5,0.8,0.8,1.2c-0.2,0.3-0.6,0.5-0.8,0.9c-0.1,0.2-0.3,0.6-0.3,0.9c0.7-0.2,1.4-0.1,2.1-0.1
				c0,0,0,0,0,0c-0.4,0.3-0.7,0.6-1.1,1c0.4,0,0.7-0.1,1.3-0.1c0.1-0.3,0.4-0.9,0.8-1.6c0.2,0.5,1.8,0.3,0.4,1.9
				c-0.1,0.1-0.1,0.2-0.1,0.3c0.3,1.5,0,2.8-1,4.1c1.8-1.6,0.8,2.7,2.1,1.7c0.3-1.1,0.5-1.9,0.7-2.9c0.2,0.3,0.4,0.6,0.6,1.1
				c0.1-0.3,0.1-0.6,0.2-0.9c0.5,0.6,0.9,1.2,1.4,1.8c0.1-0.2,0.3-0.4,0.4-0.6c0.1-0.4,0.2-0.8,0.3-1.3c0.7,0.3,1.3,0.5,2,0.8
				c0-0.4,0-0.9-0.1-1.9c0.4,0.6,0.6,0.9,0.8,1.2l0.2-0.2c-0.7-2-1.4-4.1-2.2-6.4c1,0.6,1.7,1.1,2.6,1.7c-0.1-1.4-0.2-2.8-0.3-4.2
				c0-0.6,0.3-1.1,0.5-2.2c-0.3-0.4-0.9-1.3-1.4-2.1c0-0.1,0.1-0.2,0.1-0.2c0.4,0.2,0.8,0.5,1.3,0.8c0.1-1,0.1-2,0.2-3.1
				c0.2,1.2,0.3,2.3,0.4,3.3c0.1-0.1,0.4-0.3,0.7-0.5c-0.3,1.1-0.7,2.1-0.9,3.2c-0.3,1.5,0.7,2.2,1.3,2.8c0.3,0.3,1.2-0.4,2-0.6
				c0.9,0.2,1.9,0.4,3.1,0.6c-0.1-0.5-0.3-1-0.4-1.6c0.2-0.1,0.4-0.2,0.8-0.3c-0.9-0.8-1.6-1.5-2.2-2.1c0.3-0.7,0.7-1.3,0.7-1.9
				c0-0.7-0.5-1.3-0.9-1.8c0-1.1,0-1.1-1.8-2.1c0.4-0.1,0.6-0.1,0.8-0.2c-0.1-0.4-0.2-0.7-0.4-1.2c0.2,0.1,0.4,0.2,0.7,0.3
				c-0.1-0.5-0.1-0.9-0.3-1.8c0.4,0.7,0.6,1.1,1,1.9c0.2-1.2,0.3-2,0.5-3.2c1,1.4,2.1,2.9,3.1,4.4c0,0,0.1-0.4,0.2-0.7
				c0.1-0.3,0.1-0.7-0.1-0.8c-0.2-0.4-0.4-0.8-0.6-1.2c-0.1-0.2-0.3-0.4-0.5-0.6c-0.2-0.2-0.5-0.4-0.5-0.5c0.2-1.5-0.4-1.8-1.3-2.1
				c-0.4-0.2-0.6-1.4-0.7-2.3c0.3,0.2,0.7,0.4,1.2,0.8c-0.2-0.9-0.4-1.6-0.6-2.7c0.6,1,0.9,1.7,1.3,2.4c0.1-0.1,0.3-0.2,0.4-0.3
				c-0.4-1.1-0.8-2.1-1.2-3.2c0.5,0.5,1,1.1,1.6,1.8v-1.7c0.6,1.2,1.1,2.4,1.5,3.2c0.8-1.2,1.4-2.3,2.1-3.4c0.5,0.2,0.8,0.3,1.1,0.4
				c0-0.1,0.1-0.2,0.1-0.2l-2-1.4c0.1-0.2,0.1-0.3,0.2-0.5c0.4,0.2,0.8,0.5,1.2,0.7l0.3-0.2c-0.6-1.2-1.2-2.4-1.9-3.6
				c-0.1,0.1-0.2,0.1-0.4,0.2c0.1-0.1,0.1-0.3,0.2-0.4c0.1-0.1,0.2-0.1,0.6-0.3c-0.7-0.8-1.4-1.5-2-2.2c0.1-0.1,0.2-0.3,0.3-0.4
				c0.8,1.3,2.3,1.4,2.9,3.4c0.2,0.8,0.8,1.3,1.3,2l0.3-0.3c-0.1-0.7-0.2-1.4-0.4-2.2c0.4,0.1,0.6,0.2,0.9,0.2
				c0-0.1,0.1-0.2,0.1-0.3c-1.1-1-2.1-1.9-3.3-3c0.3,0,0.6-0.1,1-0.1c-0.8-1.2-1.6-2.4-2.3-3.5c0.1-0.1,0.1-0.1,0.2-0.2
				c0.7,0.9,1.4,1.7,2.2,2.8c-0.1-0.8-0.2-1.2-0.3-1.7c0.1,0,0.1-0.1,0.2-0.1c0.3,0.9,0.6,1.8,0.8,2.6c0.3-0.3,0.6-0.6,1.1-1
				c-0.2-0.6-0.4-1.4-0.6-2.2c0.1-0.1,0.1-0.1,0.2-0.2c0.8,1,1.6,2.1,2.3,3.1c0.1-0.1,0.2-0.2,0.3-0.3c-0.7-0.9,0.3-2.8-1.3-3.3
				c1.2,0.2,1.3-0.7,1.2-1.9c-0.1-1,0-2.1,0.3-3.1v3.4c0.4-0.1,0.8-0.1,1.1-0.2c0,0.1,0.1,0.2,0.1,0.3c-0.1,0.1-0.2,0.2-0.3,0.3
				c0.2,0.8,0.3,1.5,0.4,1.8c-0.4,2.3-0.7,4.2-1.1,6.1c0.2,0.1,0.5,0.1,0.7,0.2c0.2-1.2,0.3-2.4,0.4-3.3c0.1,0.3,0.4,0.9,0.6,1.6
				c0.1-0.1,0.2-0.1,0.3-0.2c-0.1-0.8-0.2-1.5-0.3-2.3c0.1,0,0.1-0.1,0.2-0.1c0.1,0.4,0.3,0.8,0.4,1.3c0.2-0.6,0.5-1.1,0.7-1.6
				c0.1,0,0.1,0.1,0.2,0.1c0,0.5-0.1,1-0.2,1.9c1-1.1,1.7-1.9,2.5-2.8c0,0,0.1,0.1,0.1,0.1c-0.7,1.1-1.4,2.2-2.1,3.4
				c0.3,0,0.7,0.1,1.1,0.1c-0.1,0.4-0.2,0.7-0.3,1c-0.7,0-1.5-0.1-2.2,0.1c-0.2,0.1-0.3,1.1-0.5,2.1c1.1-1,1.9-1.6,2.7-2.3
				c0,1.1,0,2.2,0,3.8c0.9-1.7,1.5-2.9,2.2-4.3c-0.1,0.6-0.1,1.2-0.2,1.8c0.1-0.1,0.2-0.2,0.3-0.3c0.1-0.8,0.4-1.6,1-2.3
				c0.1,0.3,0.2,0.6,0.3,0.9c0,0,0,0,0.1-0.1c0,0,0,0.1-0.1,0.1c0.2,0.5,0.3,1,0.5,1.6c0.2-1.2,0.3-2,0.4-2.9c0.1,0,0.1,0,0.1,0
				c0.1,0.2,0.1,0.4,0.2,1c0.1-1.4,0.3-2.4,0.4-3.4c0.1,0,0.2,0,0.3-0.1c0.2,0.6,0.4,1.1,0.7,2c0.1-1,0.2-1.6,0.3-2.7
				c0.6,1.7,0.6,3.6,2.1,3.7c0.1,0,0.2-0.1,0.2-0.1c-0.3-2.9-0.1-5.8-0.7-8.7c-0.4-1.7-0.1-3.7-0.1-5.5c0.2,0,0.3,0,0.5,0
				c0.1,0.8,0.3,1.6,0.4,2.4c1.9,0,0.7,2.6,1.6,3.5c0.3-1.1,0.5-2.1,0.1-3.6c-0.4-1.4,0.1-3.4,0.2-5.1c0.1,0,0.2,0,0.4,0
				c0.3,0.8,0.5,1.5,0.8,2.3c0.1,0,0.2,0,0.3,0c-0.2-2.2-0.4-4.3-0.6-6.5c0.1,0,0.3-0.1,0.4-0.1c0.2,0.5,0.3,0.9,0.5,1.4l0.3,0v-3.5
				c0.1,0,0.2,0,0.4,0c0.2,1.1,0.4,2.3,0.5,3.1c0.6,0,1.4,0.2,1.5,0c0.2-0.7,0.4-1.8,0.1-2.3c-1.2-2.2-0.5-4.5-0.7-6.7
				c0.5,0,0.8,0.2,0.9,0.1c0.5-0.9,0.9-1.8,1.5-2.9c0.1,0.5,0.2,0.8,0.2,1c0,0,0.1,0,0.1,0v-2.8l1,0.2l3-6L837.4,263.2z
				 M126.4,267.7c0,0-6,10.2-7.4,12.7c-0.5,0.9-0.3,2.1,0.5,2.8l15,13.3c0.2,0.2,0.5,0.3,0.7,0.4l12.6,4.5c0.3,0.1,0.5,0.2,0.7,0.4
				l16.9,14.5l-18.7-12.7c-0.2-0.1-0.4-0.2-0.6-0.3l-24.8-7.5c-0.2,0-0.3-0.1-0.5-0.1L88.2,293c-0.3,0-0.6-0.1-0.8-0.2l-27.4-14.1
				l-1.2-2l-0.3-13.1l2.7-2.3l17.1,3.5c0.2,0.1,0.5,0.1,0.7,0l31.3-4.1c0.2,0,0.5,0,0.7,0l12.8,2.3L126.4,267.7z M53.1,247l4.9,1.7
				l0,0l5.5,2.2h2.8l13.6,2.5l2,2.4c-1.9,0.3-3.9,0.7-3.9,0.7l-7.2,2.6h-3.2l-9.2-2.6l-22.7,2.4L22.3,256l-1.6-0.4l-1.5,0.8
				l-7.8,4.3h-7v-3l3.7-7.9l12.8-7.9l5,3.8c0.4,0.2,1.9,0.4,3.7,0.5l-3.4,2.3l9.1-1.8l6.4-0.4L53.1,247z M511.9,131.6l-9.7-6.2
				l20.8,9.8l0.1,0l0.1,0l4.8,2.1C521.8,135.1,511.9,131.6,511.9,131.6z M727.3,269.3l-50.5-0.5l-11.7-3.2l10.6-3.3h18.1h19.3
				l23.7,5.6L727.3,269.3z M832.9,269.3h-20.5l-5-0.8l-16.5-3.6l-0.5-0.1l-0.5,0l-3.4,0.1l-0.1,0l-0.4-0.1l-0.4,0l-13.1,0.3
				l-0.5-0.3l-7.7-9.9l5.7-2.7l17.6-0.4l0.1,0l4.7,2.3l0.5,0.2l0.5,0.1l10.2,2.3l2.5,0.8l0.1,0l0.2,0l16.5,4l10.2,4.5V269.3z"/>
		</g>
	</g>
	<polygon class="st1" points="484.6,142.8 490,144 500.1,149.6 507.5,149.6 525.8,167.1 561.9,195 503.7,155.8 	"/>
	<path class="st1" d="M385,161.6l6.4-15.3l8.6-5.4l11.7-2.2l31.1,14.1l9.2,14.5l15.5,27.7l10,18.3l5.2,13.1l-5-6.2l-19.7-21.3
		l-16.3-3.8l-7.9-21.9l-12.8-5.8l-11.9,0.4c0,0,0.2,7.2,0.8,7.6c0.6,0.4,9.2,13.7,9.2,13.7l3.8,9.8l1.1,24.5l-2.6-9.8l-1-15.3
		c0,0-5-7.8-6-10s-14.1-10.6-14.1-10.6l-7.6-1l-0.6,9.2l-1,3.4l-0.4-6.6l-0.4-13.7l-5.4-6.2V161.6z"/>
	<path class="st1" d="M561.9,185.7l-6.6-14.9l12.1,4l20.9,16.9l26.9,18.5l18.9,16.1l16.1,14.9l12.1,8c0,0-0.8,1.2-3.6,0
		c-2.8-1.2-35.8-26.1-35.8-26.1l-20.9-14.5l-7.6-4.4v4l43.4,32.1l21.7,12.9l2.8,3.2l-27.3-14.9l-37.8-26.3L573,200.6L561.9,185.7z"
		/>
	<polygon class="st1" points="500.7,160.8 520.7,172.9 543.2,185.7 565.7,219.5 581.8,229.1 573,219.9 555.3,201 553.3,192.2 
		565.3,199.4 587,226.3 600.3,234.8 595.5,236.8 584.6,230.7 585.8,236.8 600.3,247.2 597.9,247.2 569.8,228.7 550.5,220.7 538,207 
		534.4,199.8 538.4,199.8 547.7,208.6 559.7,218.7 548.1,200.2 531.2,193 	"/>
	<path class="st1" d="M201.9,213.7l20.2-3.8l38.3-20.7l16.2-6.7l16.2-11.7h11.6l17.7-15c0,0,25.8-17.7,27.3-18.5
		c1.5-0.7,12.6-6,12.6-6v6l-50.5,31.5l-16.2,7.7c0,0-15.7,11.1-19.7,12.6c-4,1.5-32.8,19.7-32.8,19.7l-8.6,9.6L210,221l-18.7-3
		l-19.7,3l-21.2,5.3l3.5-4.3L201.9,213.7z"/>
	<path class="st1" d="M250,226.3l22.1-22.3l13.1-9l7.6-1.1l14.6-11.3l21.2-13.7h3.5L297.3,195l-14.1,9l-16.7,14.5l-2,11.1l11.6,2.5
		l21.7-9.1l7.6-15.2l9.1-10.6l-5.1,11.6l-11.6,20.7l7.6,2.5l11.1,5.1l2-10.9l-2-10.4h3.5l2,10.4l10.1-6.8l6.1-16.5l-5.1,23.3
		l-9.6,6.3l2,11.1c0,0-18.2,6.1-19.7,7.1c-1.5,1-24.2,1-25.8,0c-1.5-1-19.8,2.5-19.8,2.5s-16-6.1-17.6-9.1
		C241.3,241.2,250,226.3,250,226.3z"/>
</g>
</svg>
